<?xml version="1.0" encoding="UTF-8"?><!DOCTYPE svg PUBLIC "-//W3C//DTD SVG 1.1//EN" "http://www.w3.org/Graphics/SVG/1.1/DTD/svg11.dtd"><svg xmlns="http://www.w3.org/2000/svg" xmlns:xlink="http://www.w3.org/1999/xlink"><defs/><symbol id="favorite" viewBox="0 0 20 19">
<path d="M10 18.35L8.55 17.03C3.4 12.36 0 9.28 0 5.5C0 2.42 2.42 0 5.5 0C7.24 0 8.91 0.81 10 2.09C11.09 0.81 12.76 0 14.5 0C17.58 0 20 2.42 20 5.5C20 9.28 16.6 12.36 11.45 17.04L10 18.35Z"/>
</symbol><symbol id="flech-sharp" viewBox="0 0 15 24">
<path d="M0 21.2L9.32433 12L0 2.8L2.83784 0L15 12L2.83784 24L0 21.2Z"/>
</symbol><symbol id="link" viewBox="0 0 18 18">
<path d="M3.27241 14.7276C2.06326 13.5184 2.06326 11.5527 3.27241 10.3435L6.10084 7.51508L4.75733 6.17158L1.92891 9C-0.0227092 10.9516 -0.0227092 14.1195 1.92891 16.0711C3.88052 18.0227 7.04836 18.0227 8.99997 16.0711L11.8284 13.2426L10.4849 11.8991L7.65647 14.7276C6.44732 15.9367 4.48156 15.9367 3.27241 14.7276ZM6.87865 12.5355L12.5355 6.87868L11.1213 5.46447L5.46444 11.1213L6.87865 12.5355ZM8.99997 1.92894L6.17155 4.75736L7.51505 6.10087L10.3435 3.27244C11.5526 2.06329 13.5184 2.06329 14.7275 3.27244C15.9367 4.48159 15.9367 6.44735 14.7275 7.6565L11.8991 10.4849L13.2426 11.8284L16.071 9C18.0227 7.04839 18.0227 3.88055 16.071 1.92894C14.1194 -0.0226785 10.9516 -0.0226787 8.99997 1.92894Z"/>
</symbol><symbol id="more" viewBox="0 0 16 4">
<path d="M2 0C0.9 0 0 0.9 0 2C0 3.1 0.9 4 2 4C3.1 4 4 3.1 4 2C4 0.9 3.1 0 2 0ZM14 0C12.9 0 12 0.9 12 2C12 3.1 12.9 4 14 4C15.1 4 16 3.1 16 2C16 0.9 15.1 0 14 0ZM8 0C6.9 0 6 0.9 6 2C6 3.1 6.9 4 8 4C9.1 4 10 3.1 10 2C10 0.9 9.1 0 8 0Z"/>
</symbol><symbol id="search" viewBox="0 0 24 24">
<path d="M8.41472 17.0652L2.15092 23.7501C1.66496 24.2688 0.850561 24.2953 0.33192 23.8093C-0.186721 23.3233 -0.213209 22.5089 0.272759 21.9903L6.5768 15.2624C5.33607 13.6575 4.59657 11.6343 4.59657 9.43734C4.59657 4.23047 8.75018 0 13.8858 0C19.0215 0 23.1751 4.23047 23.1751 9.43734C23.1751 14.6442 19.0215 18.8747 13.8858 18.8747C11.8393 18.8747 9.94867 18.2029 8.41472 17.0652ZM13.8858 16.3009C17.5893 16.3009 20.6013 13.2332 20.6013 9.43734C20.6013 5.6415 17.5893 2.57382 13.8858 2.57382C10.1823 2.57382 7.17039 5.6415 7.17039 9.43734C7.17039 13.2332 10.1823 16.3009 13.8858 16.3009Z"/>
</symbol><symbol id="sound-off" viewBox="0 0 20 20">
<path d="M0 6.25V13.75H4.88889L11 20V0L4.88889 6.25H0Z"/>
<path d="M19.54 7.43141L18.56 6.47061L16.04 8.94122L13.52 6.47061L12.54 7.43141L15.06 9.90198L12.54 12.5098L13.52 13.4706L16.04 10.8628L18.56 13.4706L19.54 12.5098L17.02 9.90198L19.54 7.43141Z"/>
</symbol><symbol id="sound-on" viewBox="0 0 20 20">
<path d="M0 6.57925V13.4208H4.44444L10 19.122V0.877993L4.44444 6.57925H0ZM15 10C15 7.98176 13.8667 6.24857 12.2222 5.40479V14.5838C13.8667 13.7514 15 12.0182 15 10ZM12.2222 0V2.34892C15.4333 3.32953 17.7778 6.38541 17.7778 10C17.7778 13.6146 15.4333 16.6705 12.2222 17.6511V20C16.6778 18.9624 20 14.8803 20 10C20 5.11973 16.6778 1.03763 12.2222 0Z"/>
</symbol><symbol id="verified" viewBox="0 0 18 17">
<path fill-rule="evenodd" clip-rule="evenodd" d="M8.95094 16.1756L6.18495 16.8455L4.3452 14.6949L1.70948 13.6283L1.4987 10.8185L0 8.42276L1.4987 6.02701L1.70948 3.21721L4.3452 2.15059L6.18495 0L8.95094 0.669932L11.7169 0L13.5567 2.15059L16.1924 3.21721L16.4032 6.02701L17.9019 8.42276L16.4032 10.8185L16.1924 13.6283L13.5567 14.6949L11.7169 16.8455L8.95094 16.1756Z" fill="#15CDFF"/>
<path fill-rule="evenodd" clip-rule="evenodd" d="M8.03202 8.90476L12.5654 4.37143L14.529 6.33506L8.0528 12.8113L4.12553 8.88398L6.06839 6.94112L8.03202 8.90476Z" fill="#121212"/>
</symbol></svg>