<?xml version="1.0" encoding="UTF-8"?><!DOCTYPE svg PUBLIC "-//W3C//DTD SVG 1.1//EN" "http://www.w3.org/Graphics/SVG/1.1/DTD/svg11.dtd"><svg xmlns="http://www.w3.org/2000/svg" xmlns:xlink="http://www.w3.org/1999/xlink"><defs/><symbol id="favorite" viewBox="0 0 20 19">
<path d="M10 18.35L8.55 17.03C3.4 12.36 0 9.28 0 5.5C0 2.42 2.42 0 5.5 0C7.24 0 8.91 0.81 10 2.09C11.09 0.81 12.76 0 14.5 0C17.58 0 20 2.42 20 5.5C20 9.28 16.6 12.36 11.45 17.04L10 18.35Z"/>
</symbol><symbol id="flech-sharp" viewBox="0 0 15 24">
<path d="M0 21.2L9.32433 12L0 2.8L2.83784 0L15 12L2.83784 24L0 21.2Z"/>
</symbol><symbol id="link" viewBox="0 0 18 18">
<path d="M3.27241 14.7276C2.06326 13.5184 2.06326 11.5527 3.27241 10.3435L6.10084 7.51508L4.75733 6.17158L1.92891 9C-0.0227092 10.9516 -0.0227092 14.1195 1.92891 16.0711C3.88052 18.0227 7.04836 18.0227 8.99997 16.0711L11.8284 13.2426L10.4849 11.8991L7.65647 14.7276C6.44732 15.9367 4.48156 15.9367 3.27241 14.7276ZM6.87865 12.5355L12.5355 6.87868L11.1213 5.46447L5.46444 11.1213L6.87865 12.5355ZM8.99997 1.92894L6.17155 4.75736L7.51505 6.10087L10.3435 3.27244C11.5526 2.06329 13.5184 2.06329 14.7275 3.27244C15.9367 4.48159 15.9367 6.44735 14.7275 7.6565L11.8991 10.4849L13.2426 11.8284L16.071 9C18.0227 7.04839 18.0227 3.88055 16.071 1.92894C14.1194 -0.0226785 10.9516 -0.0226787 8.99997 1.92894Z"/>
</symbol><symbol id="list" viewBox="0 0 23 19">
<path fill-rule="evenodd" clip-rule="evenodd" d="M5 2H4V0H23V2H5ZM1 11H0V9H23V11H1ZM5 19H4V17H23V19H5Z" fill="#00CCFF"/>
</symbol><symbol id="more" viewBox="0 0 16 4">
<path d="M2 0C0.9 0 0 0.9 0 2C0 3.1 0.9 4 2 4C3.1 4 4 3.1 4 2C4 0.9 3.1 0 2 0ZM14 0C12.9 0 12 0.9 12 2C12 3.1 12.9 4 14 4C15.1 4 16 3.1 16 2C16 0.9 15.1 0 14 0ZM8 0C6.9 0 6 0.9 6 2C6 3.1 6.9 4 8 4C9.1 4 10 3.1 10 2C10 0.9 9.1 0 8 0Z"/>
</symbol><symbol id="new-window" viewBox="0 0 12 12">
  <path stroke="currentColor" stroke-linecap="round" d="M10.5 8.5V10c0 .3-.2.5-.5.5H2c-.3 0-.5-.2-.5-.5V2c0-.3.2-.5.5-.5h1.5M6 6l4-4m-3.5-.5H10c.3 0 .5.2.5.5v3.5"/>
</symbol><symbol id="plus" viewBox="0 0 23 23">
<path d="M13.3071 9.33025L13.4848 1.77434L9.50691 1.68079L9.32923 9.2367L1.77432 9.05904L1.68079 13.0359L9.23671 13.2136L9.05902 20.7695L13.0359 20.8631L13.2136 13.3071L20.7695 13.4848L20.8631 9.50694L13.3072 9.32925L13.3071 9.33025ZM22.3662 8.07388L22.2036 14.988L14.6477 14.8103L14.47 22.3662L7.55589 22.2036L7.73358 14.6477L0.177665 14.47L0.340258 7.55591L7.89617 7.7336L8.07386 0.177686L14.9879 0.340279L14.8103 7.89619L22.3662 8.07388V8.07388Z" fill="#00FF99"/>
</symbol><symbol id="search" viewBox="0 0 24 24">
<path d="M8.41472 17.0652L2.15092 23.7501C1.66496 24.2688 0.850561 24.2953 0.33192 23.8093C-0.186721 23.3233 -0.213209 22.5089 0.272759 21.9903L6.5768 15.2624C5.33607 13.6575 4.59657 11.6343 4.59657 9.43734C4.59657 4.23047 8.75018 0 13.8858 0C19.0215 0 23.1751 4.23047 23.1751 9.43734C23.1751 14.6442 19.0215 18.8747 13.8858 18.8747C11.8393 18.8747 9.94867 18.2029 8.41472 17.0652ZM13.8858 16.3009C17.5893 16.3009 20.6013 13.2332 20.6013 9.43734C20.6013 5.6415 17.5893 2.57382 13.8858 2.57382C10.1823 2.57382 7.17039 5.6415 7.17039 9.43734C7.17039 13.2332 10.1823 16.3009 13.8858 16.3009Z"/>
</symbol><symbol id="sound-off" viewBox="0 0 20 20">
<path d="M0 6.25V13.75H4.88889L11 20V0L4.88889 6.25H0Z"/>
<path d="M19.54 7.43141L18.56 6.47061L16.04 8.94122L13.52 6.47061L12.54 7.43141L15.06 9.90198L12.54 12.5098L13.52 13.4706L16.04 10.8628L18.56 13.4706L19.54 12.5098L17.02 9.90198L19.54 7.43141Z"/>
</symbol><symbol id="sound-on" viewBox="0 0 20 20">
<path d="M0 6.57925V13.4208H4.44444L10 19.122V0.877993L4.44444 6.57925H0ZM15 10C15 7.98176 13.8667 6.24857 12.2222 5.40479V14.5838C13.8667 13.7514 15 12.0182 15 10ZM12.2222 0V2.34892C15.4333 3.32953 17.7778 6.38541 17.7778 10C17.7778 13.6146 15.4333 16.6705 12.2222 17.6511V20C16.6778 18.9624 20 14.8803 20 10C20 5.11973 16.6778 1.03763 12.2222 0Z"/>
</symbol><symbol id="user" viewBox="0 0 36 36">
<path d="M36 0H0V36H36V0Z"/>
<path d="M26 24.0625V24.6851C26 24.7729 25.9695 24.8474 25.9084 24.9084C25.8474 24.9695 25.7729 25 25.6851 25H11.3149C11.2271 25 11.1526 24.9695 11.0916 24.9084C11.0305 24.8474 11 24.7729 11 24.6851V24.0625C11 23.6377 11.1038 23.2617 11.3113 22.9346C11.5188 22.6074 11.7874 22.3413 12.1169 22.1362C12.4465 21.9312 12.8115 21.7444 13.2119 21.5759C13.6123 21.4075 14.0127 21.2463 14.4131 21.0925C14.8135 20.9387 15.1785 20.7764 15.5081 20.6055C15.8376 20.4346 16.1062 20.2185 16.3137 19.9573C16.5212 19.696 16.625 19.397 16.625 19.0601C16.5762 19.0112 16.509 18.9368 16.4236 18.8367C16.3381 18.7366 16.188 18.5168 15.9731 18.1775C15.7583 17.8381 15.5679 17.4792 15.4019 17.1008C15.2358 16.7224 15.0857 16.2293 14.9514 15.6213C14.8171 15.0134 14.75 14.3897 14.75 13.75C14.75 13.2422 14.8489 12.7576 15.0466 12.2961C15.2444 11.8347 15.5117 11.4355 15.8486 11.0986C16.1855 10.7617 16.5847 10.4944 17.0461 10.2966C17.5076 10.0989 17.9922 10 18.5 10C19.0078 10 19.4924 10.0989 19.9539 10.2966C20.4153 10.4944 20.8145 10.7617 21.1514 11.0986C21.4883 11.4355 21.7556 11.8347 21.9534 12.2961C22.1511 12.7576 22.25 13.2422 22.25 13.75C22.25 14.2188 22.2158 14.6765 22.1475 15.1233C22.0791 15.5701 21.99 15.9644 21.8801 16.3062C21.7703 16.648 21.6482 16.9714 21.5139 17.2766C21.3796 17.5818 21.2454 17.8406 21.1111 18.053C20.9768 18.2654 20.8547 18.4497 20.7449 18.606C20.635 18.7622 20.5459 18.877 20.4775 18.9502L20.375 19.0601C20.375 19.397 20.4788 19.696 20.6863 19.9573C20.8938 20.2185 21.1624 20.4346 21.4919 20.6055C21.8215 20.7764 22.1865 20.9387 22.5869 21.0925C22.9873 21.2463 23.3877 21.4075 23.7881 21.5759C24.1885 21.7444 24.5535 21.9312 24.8831 22.1362C25.2126 22.3413 25.4812 22.6074 25.6887 22.9346C25.8962 23.2617 26 23.6377 26 24.0625Z" fill="white"/>
</symbol><symbol id="verified" viewBox="0 0 18 17">
<path fill-rule="evenodd" clip-rule="evenodd" d="M8.95094 16.1756L6.18495 16.8455L4.3452 14.6949L1.70948 13.6283L1.4987 10.8185L0 8.42276L1.4987 6.02701L1.70948 3.21721L4.3452 2.15059L6.18495 0L8.95094 0.669932L11.7169 0L13.5567 2.15059L16.1924 3.21721L16.4032 6.02701L17.9019 8.42276L16.4032 10.8185L16.1924 13.6283L13.5567 14.6949L11.7169 16.8455L8.95094 16.1756Z" fill="#15CDFF"/>
<path fill-rule="evenodd" clip-rule="evenodd" d="M8.03202 8.90476L12.5654 4.37143L14.529 6.33506L8.0528 12.8113L4.12553 8.88398L6.06839 6.94112L8.03202 8.90476Z" fill="#121212"/>
</symbol></svg>