<svg viewBox="0 0 18 18" fill="none" >
<path d="M3.27241 14.7276C2.06326 13.5184 2.06326 11.5527 3.27241 10.3435L6.10084 7.51508L4.75733 6.17158L1.92891 9C-0.0227092 10.9516 -0.0227092 14.1195 1.92891 16.0711C3.88052 18.0227 7.04836 18.0227 8.99997 16.0711L11.8284 13.2426L10.4849 11.8991L7.65647 14.7276C6.44732 15.9367 4.48156 15.9367 3.27241 14.7276ZM6.87865 12.5355L12.5355 6.87868L11.1213 5.46447L5.46444 11.1213L6.87865 12.5355ZM8.99997 1.92894L6.17155 4.75736L7.51505 6.10087L10.3435 3.27244C11.5526 2.06329 13.5184 2.06329 14.7275 3.27244C15.9367 4.48159 15.9367 6.44735 14.7275 7.6565L11.8991 10.4849L13.2426 11.8284L16.071 9C18.0227 7.04839 18.0227 3.88055 16.071 1.92894C14.1194 -0.0226785 10.9516 -0.0226787 8.99997 1.92894Z" />
</svg>
