<svg viewBox="0 0 24 24" fill="none">
<path d="M8.41472 17.0652L2.15092 23.7501C1.66496 24.2688 0.850561 24.2953 0.33192 23.8093C-0.186721 23.3233 -0.213209 22.5089 0.272759 21.9903L6.5768 15.2624C5.33607 13.6575 4.59657 11.6343 4.59657 9.43734C4.59657 4.23047 8.75018 0 13.8858 0C19.0215 0 23.1751 4.23047 23.1751 9.43734C23.1751 14.6442 19.0215 18.8747 13.8858 18.8747C11.8393 18.8747 9.94867 18.2029 8.41472 17.0652ZM13.8858 16.3009C17.5893 16.3009 20.6013 13.2332 20.6013 9.43734C20.6013 5.6415 17.5893 2.57382 13.8858 2.57382C10.1823 2.57382 7.17039 5.6415 7.17039 9.43734C7.17039 13.2332 10.1823 16.3009 13.8858 16.3009Z" />
</svg>
