<svg viewBox="0 0 36 36" fill="none" xmlns="http://www.w3.org/2000/svg">
<path d="M36 0H0V36H36V0Z"/>
<path d="M26 24.0625V24.6851C26 24.7729 25.9695 24.8474 25.9084 24.9084C25.8474 24.9695 25.7729 25 25.6851 25H11.3149C11.2271 25 11.1526 24.9695 11.0916 24.9084C11.0305 24.8474 11 24.7729 11 24.6851V24.0625C11 23.6377 11.1038 23.2617 11.3113 22.9346C11.5188 22.6074 11.7874 22.3413 12.1169 22.1362C12.4465 21.9312 12.8115 21.7444 13.2119 21.5759C13.6123 21.4075 14.0127 21.2463 14.4131 21.0925C14.8135 20.9387 15.1785 20.7764 15.5081 20.6055C15.8376 20.4346 16.1062 20.2185 16.3137 19.9573C16.5212 19.696 16.625 19.397 16.625 19.0601C16.5762 19.0112 16.509 18.9368 16.4236 18.8367C16.3381 18.7366 16.188 18.5168 15.9731 18.1775C15.7583 17.8381 15.5679 17.4792 15.4019 17.1008C15.2358 16.7224 15.0857 16.2293 14.9514 15.6213C14.8171 15.0134 14.75 14.3897 14.75 13.75C14.75 13.2422 14.8489 12.7576 15.0466 12.2961C15.2444 11.8347 15.5117 11.4355 15.8486 11.0986C16.1855 10.7617 16.5847 10.4944 17.0461 10.2966C17.5076 10.0989 17.9922 10 18.5 10C19.0078 10 19.4924 10.0989 19.9539 10.2966C20.4153 10.4944 20.8145 10.7617 21.1514 11.0986C21.4883 11.4355 21.7556 11.8347 21.9534 12.2961C22.1511 12.7576 22.25 13.2422 22.25 13.75C22.25 14.2188 22.2158 14.6765 22.1475 15.1233C22.0791 15.5701 21.99 15.9644 21.8801 16.3062C21.7703 16.648 21.6482 16.9714 21.5139 17.2766C21.3796 17.5818 21.2454 17.8406 21.1111 18.053C20.9768 18.2654 20.8547 18.4497 20.7449 18.606C20.635 18.7622 20.5459 18.877 20.4775 18.9502L20.375 19.0601C20.375 19.397 20.4788 19.696 20.6863 19.9573C20.8938 20.2185 21.1624 20.4346 21.4919 20.6055C21.8215 20.7764 22.1865 20.9387 22.5869 21.0925C22.9873 21.2463 23.3877 21.4075 23.7881 21.5759C24.1885 21.7444 24.5535 21.9312 24.8831 22.1362C25.2126 22.3413 25.4812 22.6074 25.6887 22.9346C25.8962 23.2617 26 23.6377 26 24.0625Z" fill="white"/>
</svg>
