<svg width="180" height="360" xmlns="http://www.w3.org/2000/svg" xmlns:xlink="http://www.w3.org/1999/xlink" preserveAspectRatio="none">
  <defs>
    <path d="M0 7S.973-.01 10 0c9.027.01 10 7 10 7s-.99 7.014-10 7.005C.99 13.995 0 7 0 7z" id="a"/>
    <circle id="c" cx="3" cy="3" r="3"/>
  </defs>
  <g fill="none" fill-rule="evenodd">
    <path d="M23 339.996l-8.243 8.242a.271.271 0 0 1-.11.07l-4.187 1.672c-.055.016-.094.016-.125.016a.392.392 0 0 1-.242-.094c-.094-.093-.11-.242-.078-.367l1.672-4.187c.015-.04.03-.07.07-.11L20 336.996l3 3zm2.702-4.133c.39.414.39 1.04 0 1.43L24 338.996l-3-3 1.702-1.703c.39-.39 1.016-.39 1.43 0l1.57 1.57z" fill="#FFF" fill-rule="nonzero"/>
    <path d="M50.757 348.238a.271.271 0 0 1-.11.07l-4.187 1.672c-.055.016-.094.016-.125.016a.392.392 0 0 1-.242-.094c-.094-.093-.11-.242-.078-.367l1.672-4.187c.015-.04.03-.07.07-.11l3 3z" fill="#0CF" fill-rule="nonzero"/>
    <path d="M53.013 345.982l-2.256 2.256c-.04.04-3.04-2.96-3-3l2.247-2.247 3.01 3-.001-.009z" fill="#93F" fill-rule="nonzero"/>
    <path fill="#FFF35C" fill-rule="nonzero" d="M54.99 344.006l-1.977 1.976-3.01-2.99 1.99-1.99"/>
    <path fill="#F66" fill-rule="nonzero" d="M56.98 342.015l-1.99 1.99-2.996-3.003L54 338.996"/>
    <path fill="#0F9" fill-rule="nonzero" d="M59 339.996l-2.02 2.02-2.98-3.02 2-2"/>
    <path d="M61.702 335.863c.39.414.39 1.04 0 1.43L60 338.996l-3-3 1.702-1.703c.39-.39 1.016-.39 1.43 0l1.57 1.57z" fill="#E646B6" fill-rule="nonzero"/>
    <path d="M86.757 348.238a.271.271 0 0 1-.11.07l-4.187 1.672c-.055.016-.094.016-.125.016a.392.392 0 0 1-.242-.094c-.094-.093-.11-.242-.078-.367l1.672-4.187c.015-.04.03-.07.07-.11l3 3z" fill="#F66" fill-rule="nonzero"/>
    <path d="M89.013 345.982l-2.256 2.256c-.04.04-3.04-2.96-3-3l2.247-2.247 3.01 3-.001-.009z" fill="#00E6CC" fill-rule="nonzero"/>
    <path fill="#E646B6" fill-rule="nonzero" d="M90.99 344.006l-1.977 1.976-3.01-2.99 1.99-1.99"/>
    <path fill="#FFF" fill-rule="nonzero" d="M92.98 342.015l-1.99 1.99-2.996-3.003L90 338.996"/>
    <path fill="#6157FF" fill-rule="nonzero" d="M95 339.996l-2.02 2.02-2.98-3.02 2-2"/>
    <path d="M97.702 335.863c.39.414.39 1.04 0 1.43L96 338.996l-3-3 1.702-1.703c.39-.39 1.016-.39 1.43 0l1.57 1.57zm25.055 12.375a.271.271 0 0 1-.11.07l-4.187 1.672c-.055.016-.094.016-.125.016a.392.392 0 0 1-.242-.094c-.094-.093-.11-.242-.078-.367l1.672-4.187c.015-.04.03-.07.07-.11l3 3z" fill="#0F9" fill-rule="nonzero"/>
    <path d="M125.013 345.982l-2.256 2.256c-.04.04-3.04-2.96-3-3l2.247-2.247 3.01 3-.001-.009z" fill="#0CF" fill-rule="nonzero"/>
    <path fill="#93F" fill-rule="nonzero" d="M126.99 344.006l-1.977 1.976-3.01-2.99 1.99-1.99"/>
    <path fill="#F66" fill-rule="nonzero" d="M128.98 342.015l-1.99 1.99-2.996-3.003 2.005-2.006"/>
    <path fill="#6157FF" fill-rule="nonzero" d="M131 339.996l-2.02 2.02-2.98-3.02 2-2"/>
    <path d="M133.702 335.863c.39.414.39 1.04 0 1.43L132 338.996l-3-3 1.702-1.703c.39-.39 1.016-.39 1.43 0l1.57 1.57z" fill="#FFF35C" fill-rule="nonzero"/>
    <path d="M158.757 348.238a.271.271 0 0 1-.11.07l-4.187 1.672c-.055.016-.094.016-.125.016a.392.392 0 0 1-.242-.094c-.094-.093-.11-.242-.078-.367l1.672-4.187c.015-.04.03-.07.07-.11l3 3z" fill="#FFF" fill-rule="nonzero"/>
    <path d="M161.013 345.982l-2.256 2.256c-.04.04-3.04-2.96-3-3l2.247-2.247 3.01 3-.001-.009z" fill="#F66" fill-rule="nonzero"/>
    <path fill="#0F9" fill-rule="nonzero" d="M162.99 344.006l-1.977 1.976-3.01-2.99 1.99-1.99"/>
    <path fill="#E646B6" fill-rule="nonzero" d="M164.98 342.015l-1.99 1.99-2.996-3.003 2.005-2.006"/>
    <path fill="#00E6CC" fill-rule="nonzero" d="M167 339.996l-2.02 2.02-2.98-3.02 2-2"/>
    <path d="M169.702 335.863c.39.414.39 1.04 0 1.43L168 338.996l-3-3 1.702-1.703c.39-.39 1.016-.39 1.43 0l1.57 1.57z" fill="#0CF" fill-rule="nonzero"/>
    <g fill="#FFF" fill-rule="nonzero">
      <path d="M22 306c0 1.11.89 2 2 2 1.11 0 2-.89 2-2 0-1.11-.89-2-2-2-1.11 0-2 .89-2 2zm-12 0c0 1.11.89 2 2 2 1.11 0 2-.89 2-2 0-1.11-.89-2-2-2-1.11 0-2 .89-2 2zm6 0c0 1.11.89 2 2 2 1.11 0 2-.89 2-2 0-1.11-.89-2-2-2-1.11 0-2 .89-2 2z"/>
      <path d="M58 306c0 1.11.89 2 2 2 1.11 0 2-.89 2-2 0-1.11-.89-2-2-2-1.11 0-2 .89-2 2z" opacity=".5"/>
      <path d="M46 306c0 1.11.89 2 2 2 1.11 0 2-.89 2-2 0-1.11-.89-2-2-2-1.11 0-2 .89-2 2z"/>
      <path d="M52 306c0 1.11.89 2 2 2 1.11 0 2-.89 2-2 0-1.11-.89-2-2-2-1.11 0-2 .89-2 2zm42 0c0 1.11.89 2 2 2 1.11 0 2-.89 2-2 0-1.11-.89-2-2-2-1.11 0-2 .89-2 2z" opacity=".499"/>
      <path d="M82 306c0 1.11.89 2 2 2 1.11 0 2-.89 2-2 0-1.11-.89-2-2-2-1.11 0-2 .89-2 2z" opacity=".75"/>
      <path d="M88 306c0 1.11.89 2 2 2 1.11 0 2-.89 2-2 0-1.11-.89-2-2-2-1.11 0-2 .89-2 2zm42 0c0 1.11.89 2 2 2 1.11 0 2-.89 2-2 0-1.11-.89-2-2-2-1.11 0-2 .89-2 2z"/>
      <path d="M118 306c0 1.11.89 2 2 2 1.11 0 2-.89 2-2 0-1.11-.89-2-2-2-1.11 0-2 .89-2 2z" opacity=".5"/>
      <path d="M124 306c0 1.11.89 2 2 2 1.11 0 2-.89 2-2 0-1.11-.89-2-2-2-1.11 0-2 .89-2 2zm42 0c0 1.11.89 2 2 2 1.11 0 2-.89 2-2 0-1.11-.89-2-2-2-1.11 0-2 .89-2 2z" opacity=".75"/>
      <path d="M154 306c0 1.11.89 2 2 2 1.11 0 2-.89 2-2 0-1.11-.89-2-2-2-1.11 0-2 .89-2 2zm6 0c0 1.11.89 2 2 2 1.11 0 2-.89 2-2 0-1.11-.89-2-2-2-1.11 0-2 .89-2 2z" opacity=".5"/>
    </g>
    <g fill="#FFF" fill-rule="nonzero">
      <path d="M19.89 274.242l-2.5 2.5c-1.687 1.688-4.43 1.688-6.132 0-1.688-1.703-1.688-4.445 0-6.133l2.28-2.28c-.077.85.032 1.7.33 2.5l-1.18 1.18a2.33 2.33 0 0 0 0 3.29 2.344 2.344 0 0 0 3.296 0l2.477-2.48c.93-.906.93-2.39 0-3.297a1.02 1.02 0 0 1 0-1.43c.4-.39 1.04-.39 1.43 0 1.68 1.702 1.68 4.445 0 6.132l-.001.018z"/>
      <path d="M24.72 269.406l-2.26 2.258c.08-.85-.03-1.68-.327-2.476l1.18-1.204a2.338 2.338 0 0 0 0-3.296 2.338 2.338 0 0 0-3.297 0l-2.5 2.476a2.366 2.366 0 0 0 0 3.32.952.952 0 0 1 0 1.407.992.992 0 0 1-1.407 0 4.358 4.358 0 0 1 0-6.13l2.48-2.47a4.292 4.292 0 0 1 6.12 0c1.71 1.68 1.71 4.43 0 6.13l.011-.015z"/>
    </g>
    <path d="M54.89 275.242l-2.5 2.5c-1.687 1.688-4.43 1.688-6.132 0-1.688-1.703-1.688-4.445 0-6.133l2.28-2.28c-.077.85.032 1.7.33 2.5l-1.18 1.18a2.33 2.33 0 0 0 0 3.29 2.344 2.344 0 0 0 3.296 0l2.477-2.48c.93-.906.93-2.39 0-3.297a1.02 1.02 0 0 1 0-1.43c.4-.39 1.04-.39 1.43 0 1.68 1.702 1.68 4.445 0 6.132l-.001.018z" fill="#FFF" fill-rule="nonzero"/>
    <path d="M61.72 268.406l-2.26 2.258c.08-.85-.03-1.68-.327-2.476l1.18-1.204a2.338 2.338 0 0 0 0-3.296 2.338 2.338 0 0 0-3.297 0l-2.5 2.476a2.366 2.366 0 0 0 0 3.32.952.952 0 0 1 0 1.407.992.992 0 0 1-1.407 0 4.358 4.358 0 0 1 0-6.13l2.48-2.47a4.292 4.292 0 0 1 6.12 0c1.71 1.68 1.71 4.43 0 6.13l.011-.015z" fill="#FFF" fill-rule="nonzero"/>
    <path d="M48 266l-4-4 1-1 4 4-1 1zm2-2v-5h1v5h-1zm-8 3h5v1h-5v-1zm17 8l4 4-1 1-4-4 1-1zm-2 2v5h-1v-5h1zm8-3h-5v-1h5v1z" fill="#F66" fill-rule="nonzero" opacity=".5"/>
    <path d="M89.89 276.242l-2.5 2.5c-1.687 1.688-4.43 1.688-6.132 0-1.688-1.703-1.688-4.445 0-6.133l2.28-2.28c-.077.85.032 1.7.33 2.5l-1.18 1.18a2.33 2.33 0 0 0 0 3.29 2.344 2.344 0 0 0 3.296 0l2.477-2.48c.93-.906.93-2.39 0-3.297a1.02 1.02 0 0 1 0-1.43c.4-.39 1.04-.39 1.43 0 1.68 1.702 1.68 4.445 0 6.132l-.001.018zm8.83-8.836l-2.26 2.258c.08-.85-.03-1.68-.327-2.476l1.18-1.204a2.338 2.338 0 0 0 0-3.296 2.338 2.338 0 0 0-3.297 0l-2.5 2.476a2.366 2.366 0 0 0 0 3.32.952.952 0 0 1 0 1.407.992.992 0 0 1-1.407 0 4.358 4.358 0 0 1 0-6.13l2.48-2.47a4.292 4.292 0 0 1 6.12 0c1.71 1.68 1.71 4.43 0 6.13l.011-.015z" fill="#FFF" fill-rule="nonzero"/>
    <path d="M83 265l-4-4 1-1 4 4-1 1zm3-2v-5h1v5h-1zm-9 4h5v1h-5v-1zm19 9l4 4-1 1-4-4 1-1zm-3 2v5h-1v-5h1zm9-4h-5v-1h5v1z" fill="#F66" fill-rule="nonzero"/>
    <path d="M124.89 277.242l-2.5 2.5c-1.687 1.688-4.43 1.688-6.132 0-1.688-1.703-1.688-4.445 0-6.133l2.28-2.28c-.077.85.032 1.7.33 2.5l-1.18 1.18a2.33 2.33 0 0 0 0 3.29 2.344 2.344 0 0 0 3.296 0l2.477-2.48c.93-.906.93-2.39 0-3.297a1.02 1.02 0 0 1 0-1.43c.4-.39 1.04-.39 1.43 0 1.68 1.702 1.68 4.445 0 6.132l-.001.018zm10.83-10.836l-2.26 2.258c.08-.85-.03-1.68-.327-2.476l1.18-1.204a2.338 2.338 0 0 0 0-3.296 2.338 2.338 0 0 0-3.297 0l-2.5 2.476a2.366 2.366 0 0 0 0 3.32.952.952 0 0 1 0 1.407.992.992 0 0 1-1.407 0 4.358 4.358 0 0 1 0-6.13l2.48-2.47a4.292 4.292 0 0 1 6.12 0c1.71 1.68 1.71 4.43 0 6.13l.011-.015z" fill="#FFF" fill-rule="nonzero"/>
    <path d="M118 264l-4-4 1-1 4 4-1 1zm4-2v-5h1v5h-1zm-10 5h5v1h-5v-1zm21 10l4 4-1 1-4-4 1-1zm-4 2v5h-1v-5h1zm10-5h-5v-1h5v1z" fill="#F66" fill-rule="nonzero"/>
    <path d="M159.89 278.242l-2.5 2.5c-1.687 1.688-4.43 1.688-6.132 0-1.688-1.703-1.688-4.445 0-6.133l2.28-2.28c-.077.85.032 1.7.33 2.5l-1.18 1.18a2.33 2.33 0 0 0 0 3.29 2.344 2.344 0 0 0 3.296 0l2.477-2.48c.93-.906.93-2.39 0-3.297a1.02 1.02 0 0 1 0-1.43c.4-.39 1.04-.39 1.43 0 1.68 1.702 1.68 4.445 0 6.132l-.001.018zm12.83-12.836l-2.26 2.258c.08-.85-.03-1.68-.327-2.476l1.18-1.204a2.338 2.338 0 0 0 0-3.296 2.338 2.338 0 0 0-3.297 0l-2.5 2.476a2.366 2.366 0 0 0 0 3.32.952.952 0 0 1 0 1.407.992.992 0 0 1-1.407 0 4.358 4.358 0 0 1 0-6.13l2.48-2.47a4.292 4.292 0 0 1 6.12 0c1.71 1.68 1.71 4.43 0 6.13l.011-.015z" fill="#FFF" fill-rule="nonzero"/>
    <path d="M153 263l-4-4 1-1 4 4-1 1zm5-2v-5h1v5h-1zm-11 6h5v1h-5v-1zm23 11l4 4-1 1-4-4 1-1zm-5 2v5h-1v-5h1zm11-6h-5v-1h5v1z" fill="#F66" fill-rule="nonzero"/>
    <path d="M12.402 228a.722.722 0 0 0-.526.273l-3.798 5.454a.517.517 0 0 0 0 .546l3.798 5.454c.105.15.34.273.526.273h2.463c.185 0 .248-.125.145-.273l-3.798-5.454a.517.517 0 0 1 0-.546l3.798-5.454c.105-.15.04-.273-.145-.273h-2.463zm11.12 12c.24 0 .54-.148.674-.34l3.705-5.32a.603.603 0 0 0 0-.68l-3.7-5.32a.889.889 0 0 0-.67-.34h-2.27c-.24 0-.33.148-.19.34l3.707 5.32a.635.635 0 0 1 0 .68l-3.705 5.32c-.13.188-.05.34.2.34h2.249zm24.891-12a.722.722 0 0 0-.526.273l-3.8 5.454a.521.521 0 0 0 0 .546l3.8 5.454c.104.15.34.273.525.273h2.463c.187 0 .25-.125.147-.273l-3.796-5.454a.521.521 0 0 1 0-.546l3.8-5.454c.105-.15.04-.273-.145-.273h-2.47.002zm11.12 12c.24 0 .54-.148.674-.34l3.705-5.32a.607.607 0 0 0 0-.68l-3.7-5.32a.892.892 0 0 0-.67-.34h-2.27c-.24 0-.33.148-.2.34l3.706 5.32a.635.635 0 0 1 0 .68l-3.705 5.32c-.13.188-.05.34.2.34h2.26zm25.88-12a.827.827 0 0 0-.547.243l-4.76 5.514a.385.385 0 0 0 0 .486l4.76 5.514c.112.134.36.243.542.243h2.463c.184 0 .235-.115.125-.243l-4.76-5.514a.4.4 0 0 1 0-.486l4.76-5.514c.12-.134.06-.243-.12-.243h-2.463zm9.12 12c.24 0 .54-.148.67-.34l4.707-5.32a.607.607 0 0 0 0-.68l-4.7-5.32a.892.892 0 0 0-.67-.34h-2.27c-.24 0-.33.148-.198.34l4.703 5.32a.633.633 0 0 1 0 .68l-4.704 5.32c-.13.188-.05.34.2.34h2.262z" fill="#FFF" fill-rule="nonzero"/>
    <g transform="translate(116 228)" fill-rule="nonzero">
      <path d="M13.523 12c.24 0 .54-.148.673-.34 0 0 5.804-4.17 5.804-5.66C20 4.51 14.196.34 14.196.34c-.13-.188-.424-.34-.673-.34H11.26c-.24 0-.33.148-.198.34C11.062.34 17 5.262 17 6c0 .738-5.938 5.66-5.938 5.66-.13.188-.05.34.2.34m-4.785 0c-.24 0-.54-.148-.673-.34C5.804 11.66 0 7.49 0 6 0 4.51 5.804.34 5.804.34c.13-.188.424-.34.673-.34H8.74c.24 0 .33.148.198.34C8.938.34 3 5.262 3 6c0 .738 5.938 5.66 5.938 5.66.13.188.05.34-.2.34" fill="#FFF"/>
      <circle fill="#0F9" cx="10" cy="6" r="1"/>
    </g>
    <g transform="translate(152 227)">
      <mask id="b" fill="#fff">
        <use xlink:href="#a"/>
      </mask>
      <path d="M0 7S.973-.01 10 0c9.027.01 10 7 10 7s-.99 7.014-10 7.005C.99 13.995 0 7 0 7z" stroke="#FFF" stroke-width="6" mask="url(#b)"/>
    </g>
    <g transform="translate(159 231)">
      <mask id="d" fill="#fff">
        <use xlink:href="#c"/>
      </mask>
      <circle stroke="#0F9" stroke-width="4" mask="url(#d)" cx="3" cy="3" r="3"/>
    </g>
    <path d="M11 155h-1v4h2v-2h3v-2h-4zm13 2v2h2v-4h-5v2h3zm1 11h1v-4h-2v2h-3v2h4zm-14 0h-1v-4h2v2h3v2h-4zm36-13h-1v4h2v-2h3v-2h-4zm14 0h1v4h-2v-2h-3v-2h4zm0 13h1v-4h-2v2h-3v2h4zm-14 0h-1v-4h2v2h3v2h-4z" fill="#FFF" fill-rule="nonzero"/>
    <path fill="#F66" fill-rule="nonzero" d="M52 160h4v3h-4z"/>
    <path d="M83 155h-1v5h2v-3h4v-2h-5zm14 0h1v5h-2v-3h-4v-2h5zm0 13h1v-5h-2v3h-4v2h5zm-14 0h-1v-5h2v3h4v2h-5z" fill="#FFF" fill-rule="nonzero"/>
    <path fill="#FFF35C" fill-rule="nonzero" d="M86 159h8v5h-8z"/>
    <path d="M119 155h-1v6h2v-4h5v-2h-6zm14 0h1v6h-2v-4h-5v-2h6zm0 13h1v-6h-2v4h-5v2h6zm-14 0h-1v-6h2v4h5v2h-6z" fill="#FFF" fill-rule="nonzero"/>
    <path fill="#0F9" fill-rule="nonzero" d="M121 158h10v7h-10z"/>
    <path d="M155 168h-1v-13h16v13h-15zm1-2h12v-9h-12v9z" fill="#FFF" fill-rule="nonzero"/>
    <path fill="#0CF" fill-rule="nonzero" d="M156 157h12v9h-12z"/>
    <path d="M22 119h4v3h-4v-3zm-6 0h4v3h-4v-3zm-6 0h4v3h-4v-3zm12 5h4v3h-4v-3zm-6 0h4v3h-4v-3zm-6 0h4v3h-4v-3zm12 5h4v3h-4v-3zm-6 0h4v3h-4v-3zm-6 0h4v3h-4v-3z" fill="#FFF" fill-rule="nonzero"/>
    <path fill="#0F9" fill-rule="nonzero" d="M58 119h4v3h-4z"/>
    <path fill="#FFF35C" fill-rule="nonzero" d="M52 119h4v3h-4z"/>
    <path fill="#93F" fill-rule="nonzero" d="M46 119h4v3h-4z"/>
    <path fill="#F66" fill-rule="nonzero" d="M58 124h4v3h-4z"/>
    <path fill="#0F9" fill-rule="nonzero" d="M52 124h4v3h-4z"/>
    <path fill="#0CF" fill-rule="nonzero" d="M46 124h4v3h-4z"/>
    <path fill="#FFF35C" fill-rule="nonzero" d="M58 129h4v3h-4z"/>
    <path fill="#93F" fill-rule="nonzero" d="M52 129h4v3h-4z"/>
    <path fill="#F66" fill-rule="nonzero" d="M46 129h4v3h-4z"/>
    <path fill="#0CF" fill-rule="nonzero" d="M94 119h4v3h-4z"/>
    <path fill="#9013FE" fill-rule="nonzero" d="M88 119h4v3h-4z"/>
    <path fill="#F66" fill-rule="nonzero" d="M82 119h4v3h-4z"/>
    <path fill="#FFF35C" fill-rule="nonzero" d="M94 124h4v3h-4z"/>
    <path fill="#F66" fill-rule="nonzero" d="M88 124h4v3h-4z"/>
    <path d="M82 124h4v3h-4v-3zm12 5h4v3h-4v-3z" fill="#9013FE" fill-rule="nonzero"/>
    <path fill="#0F9" fill-rule="nonzero" d="M88 129h4v3h-4z"/>
    <path fill="#0CF" fill-rule="nonzero" d="M82 129h4v3h-4z"/>
    <path fill="#FFF35C" fill-rule="nonzero" d="M130 119h4v3h-4z"/>
    <path fill="#0CF" fill-rule="nonzero" d="M124 119h4v3h-4z"/>
    <path d="M118 119h4v3h-4v-3zm12 5h4v3h-4v-3z" fill="#0F9" fill-rule="nonzero"/>
    <path fill="#9013FE" fill-rule="nonzero" d="M124 124h4v3h-4z"/>
    <path fill="#FFF35C" fill-rule="nonzero" d="M118 124h4v3h-4z"/>
    <path fill="#0CF" fill-rule="nonzero" d="M130 129h4v3h-4z"/>
    <path fill="#FFF35C" fill-rule="nonzero" d="M124 129h4v3h-4z"/>
    <path fill="#F66" fill-rule="nonzero" d="M118 129h4v3h-4z"/>
    <path fill="#93F" fill-rule="nonzero" d="M166 119h4v3h-4z"/>
    <path fill="#F66" fill-rule="nonzero" d="M160 119h4v3h-4z"/>
    <path fill="#0CF" fill-rule="nonzero" d="M154 119h4v3h-4z"/>
    <path d="M166 124h4v3h-4v-3zm-6 0h4v3h-4v-3z" fill="#FFF35C" fill-rule="nonzero"/>
    <path fill="#F66" fill-rule="nonzero" d="M154 124h4v3h-4z"/>
    <path fill="#0F9" fill-rule="nonzero" d="M166 129h4v3h-4z"/>
    <path fill="#0CF" fill-rule="nonzero" d="M160 129h4v3h-4z"/>
    <path fill="#0F9" fill-rule="nonzero" d="M154 129h4v3h-4z"/>
    <path d="M10 84v-1h16v13H10V84zm2 1v9h12v-9H12zm6-4h2v2h-2v-2zm-2 0h2v2h-2v-2zm-2-2h2v2h-2v-2zm-2-2h2v2h-2v-2zm8 2h2v2h-2v-2zm2-2h2v2h-2v-2z" fill="#FFF" fill-rule="nonzero"/>
    <path fill="#0CF" fill-rule="nonzero" d="M48 93l2-2 2 2 2-2 2 2 2-2 2 2v1H48"/>
    <path fill="#F66" fill-rule="nonzero" d="M48 88l2-2 2 2 2-2 2 2 2-2 2 2v5l-2.002-2L56 93l-2-2-2 2-2-2-2 2"/>
    <path fill="#93F" fill-rule="nonzero" d="M48 85h12v3l-2.002-2L56 88l-2-2-2 2-2-2-2 2"/>
    <path d="M46 84v-1h16v13H46V84zm2 1v9h12v-9H48zm6-4h2v2h-2v-2zm-2 0h2v2h-2v-2zm-2-2h2v2h-2v-2zm-2-2h2v2h-2v-2zm8 2h2v2h-2v-2zm2-2h2v2h-2v-2z" fill="#FFF" fill-rule="nonzero"/>
    <path fill="#F66" fill-rule="nonzero" d="M84 93l2-2 2 2 2-2 2 2 2-2 2 2v1H84"/>
    <path fill="#93F" fill-rule="nonzero" d="M84 88l2-2 2 2 2-2 2 2 2-2 2 2v5l-2.002-2L92 93l-2-2-2 2-2-2-2 2"/>
    <path fill="#0F9" fill-rule="nonzero" d="M84 85h12v3l-2.002-2L92 88l-2-2-2 2-2-2-2 2"/>
    <path d="M82 84v-1h16v13H82V84zm2 1v9h12v-9H84zm6-4h2v2h-2v-2zm-2 0h2v2h-2v-2zm-2-2h2v2h-2v-2zm-2-2h2v2h-2v-2zm8 2h2v2h-2v-2zm2-2h2v2h-2v-2z" fill="#FFF" fill-rule="nonzero"/>
    <path fill="#93F" fill-rule="nonzero" d="M120 93l2-2 2 2 2-2 2 2 2-2 2 2v1h-12"/>
    <path fill="#0F9" fill-rule="nonzero" d="M120 88l2-2 2 2 2-2 2 2 2-2 2 2v5l-2.002-2L128 93l-2-2-2 2-2-2-2 2"/>
    <path fill="#0CF" fill-rule="nonzero" d="M120 85h12v3l-2.002-2L128 88l-2-2-2 2-2-2-2 2"/>
    <path d="M118 84v-1h16v13h-16V84zm2 1v9h12v-9h-12zm6-4h2v2h-2v-2zm-2 0h2v2h-2v-2zm-2-2h2v2h-2v-2zm-2-2h2v2h-2v-2zm8 2h2v2h-2v-2zm2-2h2v2h-2v-2z" fill="#FFF" fill-rule="nonzero"/>
    <path fill="#0F9" fill-rule="nonzero" d="M156 93l2-2 2 2 2-2 2 2 2-2 2 2v1h-12"/>
    <path fill="#0CF" fill-rule="nonzero" d="M156 88l2-2 2 2 2-2 2 2 2-2 2 2v5l-2.002-2L164 93l-2-2-2 2-2-2-2 2"/>
    <path fill="#F66" fill-rule="nonzero" d="M156 85h12v3l-2.002-2L164 88l-2-2-2 2-2-2-2 2"/>
    <path d="M154 84v-1h16v13h-16V84zm2 1v9h12v-9h-12zm6-4h2v2h-2v-2zm-2 0h2v2h-2v-2zm-2-2h2v2h-2v-2zm-2-2h2v2h-2v-2zm8 2h2v2h-2v-2zm2-2h2v2h-2v-2z" fill="#FFF" fill-rule="nonzero"/>
    <path fill="#F66" fill-rule="nonzero" d="M13 48h4v2h2v-2h4v2h2v4h-2v2h-1.997v2H19v2h-2v-2h-2v-2h-2v-2h-2v-4h2"/>
    <path fill="#FFF" fill-rule="nonzero" d="M49 48h4v2h2v-2h4v2h2v4h-2v2h-1.997v2H55v2h-2v-2h-2v-2h-2v-2h-2v-4h2"/>
    <path d="M47 50h14v4H47v-4zm2 4h10v4H49v-4zm4 4h2v4h-2v-4zm2 0h2v1h-2v-1zm-6 2h2v4h-2v-4zm4 4h2v2h-2v-2z" fill="#F66" fill-rule="nonzero"/>
    <path fill="#FFF" fill-rule="nonzero" d="M85 48h4v2h2v-2h4v2h2v4h-2v2h-1.997v2H91v2h-2v-2h-2v-2h-2v-2h-2v-4h2"/>
    <path d="M85 55h10v1H85v-1zm2 1h6v2h-6v-2zm2 2h2v2h-2v-2zm2 0h2v4h-2v-4zm-2 4h2v2h-2v-2zm2 4h2v2h-2v-2z" fill="#F66" fill-rule="nonzero"/>
    <path fill="#FFF" fill-rule="nonzero" d="M121 48h4v2h2v-2h4v2h2v4h-2v2h-1.997v2H127v2h-2v-2h-2v-2h-2v-2h-2v-4h2"/>
    <path d="M123 57h6v1h-6v-1zm2 1h2v2h-2v-2zm0 4h2v2h-2v-2z" fill="#F66" fill-rule="nonzero"/>
    <path d="M157 48h4v2h2v-2h4v2h2v4h-2v2h-1.997v2H163v2h-2v-2h-2v-2h-2v-2h-2v-4h2M13 12h4v2h2v-2h4v2h2v4h-2v2h-1.997v2H19v2h-2v-2h-2v-2h-2v-2h-2v-4h2m36-2h4v2h2v-2h4v2h2v4h-2v2h-1.997v2H55v2h-2v-2h-2v-2h-2v-2h-2v-4h2" fill="#FFF" fill-rule="nonzero"/>
    <path d="M45 10h1v1h-1v-1zm0-1h1v1h-1V9zm-1 1h1v1h-1v-1zm-1 0h1v1h-1v-1zm2-2h1v1h-1V8zm-1 1h1v1h-1V9zm-1-1h1v1h-1V8zm-1-1h1v1h-1V7zm-1-1h1v1h-1V6zm-1-1h1v1h-1V5zm0-1h1v1h-1V4zm-1 1h1v1h-1V5zm-1 0h1v1h-1V5zm1-1h1v1h-1V4zm-2 0h1v1h-1V4zm1 0h1v1h-1V4zm2-1h1v1h-1V3zm-1 0h1v1h-1V3zm0-1h1v1h-1V2z" fill="#F66" fill-rule="nonzero"/>
    <path fill="#FFF" fill-rule="nonzero" d="M85 12h4v2h2v-2h4v2h2v4h-2v2h-1.997v2H91v2h-2v-2h-2v-2h-2v-2h-2v-4h2"/>
    <path d="M85 14h3v1h-3v-1zm0 1h2v1h-2v-1zm0 1h1v1h-1v-1zm-1-2h1v4h-1v-4zm-1 0h1v4h-1v-4zm2-2h4v1h-4v-1zm-1 1h5v1h-5v-1zm-1-1h1v1h-1v-1zm-1-1h1v1h-1v-1zm-1-1h1v1h-1v-1zm-1-1h1v1h-1V9zm0-1h1v1h-1V8zm-1 1h1v1h-1V9zm-1 0h1v1h-1V9zm1-1h1v1h-1V8zm-2 0h1v1h-1V8zm1 0h1v1h-1V8zm2-1h1v1h-1V7zm-1 0h1v1h-1V7zm0-1h1v1h-1V6z" fill="#F66" fill-rule="nonzero"/>
    <path fill="#FFF" fill-rule="nonzero" d="M121 12h4v2h2v-2h4v2h2v4h-2v2h-1.997v2H127v2h-2v-2h-2v-2h-2v-2h-2v-4h2"/>
    <path d="M121 12h4v8h-4v-8zm-1 1h1v5h-1v-5zm-1 1h1v4h-1v-4zm4 6h1v1h-1v-1zm2-6h1v5h-1v-5zm1 0h1v4h-1v-4zm1-2h1v5h-1v-5zm1 0h1v4h-1v-4zm1 0h1v3h-1v-3zm1 0h1v2h-1v-2zm-11 0h1v1h-1v-1zm0-1h1v1h-1v-1zm-1 1h1v1h-1v-1zm-1 0h1v1h-1v-1zm1-1h1v1h-1v-1zm-2 0h1v1h-1v-1zm1 0h1v1h-1v-1zm2-1h1v1h-1v-1zm-1 0h1v1h-1v-1zm0-1h1v1h-1V9zm39 3h4v2h2v-2h4v2h2v4h-2v2h-1.997v2H163v2h-2v-2h-2v-2h-2v-2h-2v-4h2v-2z" fill="#F66" fill-rule="nonzero"/>
    <path d="M22.375 202.999l2.25-1.538v2.417c0 .615-.221 1.144-.664 1.586a2.165 2.165 0 0 1-1.586.664H12.25a2.165 2.165 0 0 1-1.586-.664 2.165 2.165 0 0 1-.664-1.586v-9c0-.615.221-1.144.664-1.586a2.165 2.165 0 0 1 1.586-.664h6.372v.914c-1.365.21-2.517.656-3.454 1.336H12.25v9h10.125v-.879zm5.458-6.187c.111.093.167.199.167.316 0 .14-.056.243-.167.308l-7.128 4.877a.344.344 0 0 1-.202.062.282.282 0 0 1-.167-.044.34.34 0 0 1-.211-.334v-2.645c-.809.017-1.553.086-2.232.206-.68.12-1.209.246-1.587.378a5.49 5.49 0 0 0-1.033.479c-.31.188-.506.32-.588.396a2.895 2.895 0 0 0-.229.237l-.018.017a.33.33 0 0 1-.316.185h-.079c-.176-.047-.272-.164-.29-.352 0-1.693.498-3.061 1.494-4.104 1.125-1.201 2.751-1.834 4.878-1.898v-2.646c0-.158.07-.27.21-.334.136-.076.259-.07.37.018l7.128 4.878z" fill="#FFF"/>
    <path d="M58.375 203.136l2.25-1.538v2.417c0 .615-.221 1.144-.664 1.586a2.165 2.165 0 0 1-1.586.664H48.25a2.165 2.165 0 0 1-1.586-.664 2.165 2.165 0 0 1-.664-1.586v-9c0-.615.221-1.144.664-1.586a2.165 2.165 0 0 1 1.586-.664h6.372v.914c-1.365.211-2.517.656-3.454 1.336H48.25v9h10.125v-.879z" fill="#0CF"/>
    <path d="M63.833 196.949c.111.093.167.199.167.316 0 .14-.056.243-.167.308l-7.128 4.878a.344.344 0 0 1-.202.061.282.282 0 0 1-.167-.044.34.34 0 0 1-.211-.334v-2.645c-.809.017-1.553.086-2.232.206-.68.12-1.209.246-1.587.378a5.49 5.49 0 0 0-1.033.48c-.31.187-.506.318-.588.395a2.895 2.895 0 0 0-.229.237c-.082.14-.187.202-.334.202h-.079c-.176-.047-.272-.164-.29-.352 0-1.693.498-3.061 1.494-4.104 1.125-1.201 2.751-1.834 4.878-1.898v-2.646c0-.158.07-.27.21-.334.136-.076.259-.07.37.018l7.128 4.878zm30.542 6.187l2.25-1.538v2.417c0 .615-.221 1.144-.664 1.586a2.165 2.165 0 0 1-1.586.664H84.25a2.165 2.165 0 0 1-1.586-.664 2.165 2.165 0 0 1-.664-1.586v-9c0-.615.221-1.144.664-1.586a2.165 2.165 0 0 1 1.586-.664h6.372v.914c-1.365.211-2.517.656-3.454 1.336H84.25v9h10.125v-.879z" fill="#F66"/>
    <path d="M99.833 196.949c.111.093.167.199.167.316 0 .14-.056.243-.167.308l-7.128 4.878a.344.344 0 0 1-.202.061.282.282 0 0 1-.167-.044.34.34 0 0 1-.211-.334v-2.645c-.809.017-1.553.086-2.232.206-.68.12-1.209.246-1.587.378a5.49 5.49 0 0 0-1.033.48c-.31.187-.506.318-.588.395a2.895 2.895 0 0 0-.229.237c-.082.14-.187.202-.334.202h-.079c-.176-.047-.272-.164-.29-.352 0-1.693.498-3.061 1.494-4.104 1.125-1.201 2.751-1.834 4.878-1.898v-2.646c0-.158.07-.27.21-.334.136-.076.259-.07.37.018l7.128 4.878zm30.542 6.187l2.25-1.538v2.417c0 .615-.221 1.144-.664 1.586a2.165 2.165 0 0 1-1.586.664H120.25a2.165 2.165 0 0 1-1.586-.664 2.165 2.165 0 0 1-.664-1.586v-9c0-.615.221-1.144.664-1.586a2.165 2.165 0 0 1 1.586-.664h6.372v.914c-1.365.211-2.517.656-3.454 1.336h-2.918v9h10.125v-.879z" fill="#93F"/>
    <path d="M135.833 196.949c.111.093.167.199.167.316 0 .14-.056.243-.167.308l-7.128 4.878a.344.344 0 0 1-.202.061.282.282 0 0 1-.167-.044.34.34 0 0 1-.211-.334v-2.645c-.809.017-1.553.086-2.232.206-.68.12-1.209.246-1.587.378a5.49 5.49 0 0 0-1.033.48c-.31.187-.506.318-.588.395a2.895 2.895 0 0 0-.229.237c-.082.14-.187.202-.334.202h-.079c-.176-.047-.272-.164-.29-.352 0-1.693.498-3.061 1.494-4.104 1.125-1.201 2.751-1.834 4.878-1.898v-2.646c0-.158.07-.27.21-.334.136-.076.259-.07.37.018l7.128 4.878zm30.542 6.187l2.25-1.538v2.417c0 .615-.221 1.144-.664 1.586a2.165 2.165 0 0 1-1.586.664H156.25a2.165 2.165 0 0 1-1.586-.664 2.165 2.165 0 0 1-.664-1.586v-9c0-.615.221-1.144.664-1.586a2.165 2.165 0 0 1 1.586-.664h6.372v.914c-1.365.211-2.517.656-3.454 1.336h-2.918v9h10.125v-.879z" fill="#0F9"/>
    <path d="M171.833 196.949c.111.093.167.199.167.316 0 .14-.056.243-.167.308l-7.128 4.878a.344.344 0 0 1-.202.061.282.282 0 0 1-.167-.044.34.34 0 0 1-.211-.334v-2.645c-.809.017-1.553.086-2.232.206-.68.12-1.209.246-1.587.378a5.49 5.49 0 0 0-1.033.48c-.31.187-.506.318-.588.395a2.895 2.895 0 0 0-.229.237c-.082.14-.187.202-.334.202h-.079c-.176-.047-.272-.164-.29-.352 0-1.693.498-3.061 1.494-4.104 1.125-1.201 2.751-1.834 4.878-1.898v-2.646c0-.158.07-.27.21-.334.136-.076.259-.07.37.018l7.128 4.878z" fill="#0CF"/>
  </g>
</svg>
