<?xml version="1.0" encoding="UTF-8"?>
<svg width="1081px" height="1800px" viewBox="0 0 1081 1800" version="1.1" xmlns="http://www.w3.org/2000/svg" xmlns:xlink="http://www.w3.org/1999/xlink">
    <title>icon sheet (6 column)</title>
    <defs>
        <path d="M0,35.0000534 C0,35.0000534 4.865,-0.0499465558 50,0 C95.135,0.0500534442 100,35.0000534 100,35.0000534 C100,35.0000534 95.05,70.0700534 50,70.0250967 C4.95,69.9750534 0,35.0000534 0,35.0000534 Z" id="path-1"></path>
        <circle id="path-3" cx="15" cy="15" r="15"></circle>
    </defs>
    <g id="icon-sheet-(6-column)" stroke="none" stroke-width="1" fill="none" fill-rule="evenodd">
        <g id="edit-pencil" transform="translate(50.944389, 1670.002500)" fill-rule="nonzero">
            <path d="M65.0001664,29.9775 L23.7851664,71.1875 C23.6330488,71.3471882 23.4442514,71.4673319 23.2351664,71.5375 L2.30016643,79.8975 C2.02516643,79.9775 1.83016643,79.9775 1.67516643,79.9775 C1.23015638,79.9628186 0.803406838,79.7970564 0.465166435,79.5075 C-0.00483356527,79.0425 -0.0848335653,78.2975 0.0751664347,77.6725 L8.43516643,56.7375 C8.51016643,56.5375 8.58516643,56.3875 8.78516643,56.1875 L50.0001664,14.9775 L65.0001664,29.9775 Z M78.5101664,9.3125 C80.4601664,11.3825 80.4601664,14.5125 78.5101664,16.4625 L70.0001664,24.9775 L55.0001664,9.9775 L63.5101664,1.4625 C65.4601664,-0.4875 68.5901664,-0.4875 70.6601664,1.4625 L78.5101664,9.3125 Z" id="Shape" fill="#FFFFFF"></path>
            <path d="M203.785166,71.1875 C203.633049,71.3471882 203.444251,71.4673319 203.235166,71.5375 L182.300166,79.8975 C182.025166,79.9775 181.830166,79.9775 181.675166,79.9775 C181.230156,79.9628186 180.803407,79.7970564 180.465166,79.5075 C179.995166,79.0425 179.915166,78.2975 180.075166,77.6725 L188.435166,56.7375 C188.510166,56.5375 188.585166,56.3875 188.785166,56.1875 L203.785166,71.1875 Z" id="Path" fill="#00CCFF"></path>
            <path d="M215.065166,59.9075 L203.785166,71.1875 C203.585166,71.3875 188.585166,56.3875 188.785166,56.1875 L200.020166,44.9525 L215.070166,59.9525 L215.065166,59.9075 L215.065166,59.9075 Z" id="Path" fill="#9933FF"></path>
            <polyline id="Path" fill="#FFF35C" points="224.950166 50.0275 215.065166 59.9075 200.015166 44.9575 209.965166 35.0075"></polyline>
            <polyline id="Path" fill="#FF6666" points="234.900166 40.0725 224.950166 50.0225 209.970166 35.0075 220.000166 24.9775"></polyline>
            <polyline id="Path" fill="#00FF99" points="245.000166 29.9775 234.900166 40.0775 220.000166 24.9775 230.000166 14.9775"></polyline>
            <path d="M258.510166,9.3125 C260.460166,11.3825 260.460166,14.5125 258.510166,16.4625 L250.000166,24.9775 L235.000166,9.9775 L243.510166,1.4625 C245.460166,-0.4875 248.590166,-0.4875 250.660166,1.4625 L258.510166,9.3125 Z" id="Path" fill="#E646B6"></path>
            <path d="M383.785166,71.1875 C383.633049,71.3471882 383.444251,71.4673319 383.235166,71.5375 L362.300166,79.8975 C362.025166,79.9775 361.830166,79.9775 361.675166,79.9775 C361.230156,79.9628186 360.803407,79.7970564 360.465166,79.5075 C359.995166,79.0425 359.915166,78.2975 360.075166,77.6725 L368.435166,56.7375 C368.510166,56.5375 368.585166,56.3875 368.785166,56.1875 L383.785166,71.1875 L383.785166,71.1875 Z" id="Path" fill="#FF6666"></path>
            <path d="M395.065166,59.9075 L383.785166,71.1875 C383.585166,71.3875 368.585166,56.3875 368.785166,56.1875 L380.020166,44.9525 L395.070166,59.9525 L395.065166,59.9075 L395.065166,59.9075 Z" id="Path" fill="#00E6CC"></path>
            <polyline id="Path" fill="#E646B6" points="404.950166 50.0275 395.065166 59.9075 380.015166 44.9575 389.965166 35.0075"></polyline>
            <polyline id="Path" fill="#FFFFFF" points="414.900166 40.0725 404.950166 50.0225 389.970166 35.0075 400.000166 24.9775"></polyline>
            <polyline id="Path" fill="#6157FF" points="425.000166 29.9775 414.900166 40.0775 400.000166 24.9775 410.000166 14.9775"></polyline>
            <path d="M438.510166,9.3125 C440.460166,11.3825 440.460166,14.5125 438.510166,16.4625 L430.000166,24.9775 L415.000166,9.9775 L423.510166,1.4625 C425.460166,-0.4875 428.590166,-0.4875 430.660166,1.4625 L438.510166,9.3125 Z M563.785166,71.1875 C563.633049,71.3471882 563.444251,71.4673319 563.235166,71.5375 L542.300166,79.8975 C542.025166,79.9775 541.830166,79.9775 541.675166,79.9775 C541.230156,79.9628186 540.803407,79.7970564 540.465166,79.5075 C539.995166,79.0425 539.915166,78.2975 540.075166,77.6725 L548.435166,56.7375 C548.510166,56.5375 548.585166,56.3875 548.785166,56.1875 L563.785166,71.1875 Z" id="Shape" fill="#00FF99"></path>
            <path d="M575.065166,59.9075 L563.785166,71.1875 C563.585166,71.3875 548.585166,56.3875 548.785166,56.1875 L560.020166,44.9525 L575.070166,59.9525 L575.065166,59.9075 L575.065166,59.9075 Z" id="Path" fill="#00CCFF"></path>
            <polyline id="Path" fill="#9933FF" points="584.950166 50.0275 575.065166 59.9075 560.015166 44.9575 569.965166 35.0075"></polyline>
            <polyline id="Path" fill="#FF6666" points="594.900166 40.0725 584.950166 50.0225 569.970166 35.0075 579.995166 24.9775"></polyline>
            <polyline id="Path" fill="#6157FF" points="605.000166 29.9775 594.900166 40.0775 580.000166 24.9775 590.000166 14.9775"></polyline>
            <path d="M618.510166,9.3125 C620.460166,11.3825 620.460166,14.5125 618.510166,16.4625 L610.000166,24.9775 L595.000166,9.9775 L603.510166,1.4625 C605.460166,-0.4875 608.590166,-0.4875 610.660166,1.4625 L618.510166,9.3125 Z" id="Path" fill="#FFF35C"></path>
            <path d="M743.785166,71.1875 C743.633049,71.3471882 743.444251,71.4673319 743.235166,71.5375 L722.300166,79.8975 C722.025166,79.9775 721.830166,79.9775 721.675166,79.9775 C721.230156,79.9628186 720.803407,79.7970564 720.465166,79.5075 C719.995166,79.0425 719.915166,78.2975 720.075166,77.6725 L728.435166,56.7375 C728.510166,56.5375 728.585166,56.3875 728.785166,56.1875 L743.785166,71.1875 L743.785166,71.1875 Z" id="Path" fill="#FFFFFF"></path>
            <path d="M755.065166,59.9075 L743.785166,71.1875 C743.585166,71.3875 728.585166,56.3875 728.785166,56.1875 L740.020166,44.9525 L755.070166,59.9525 L755.065166,59.9075 L755.065166,59.9075 Z" id="Path" fill="#FF6666"></path>
            <polyline id="Path" fill="#00FF99" points="764.950166 50.0275 755.065166 59.9075 740.015166 44.9575 749.965166 35.0075"></polyline>
            <polyline id="Path" fill="#E646B6" points="774.900166 40.0725 764.950166 50.0225 749.970166 35.0075 759.995166 24.9775"></polyline>
            <polyline id="Path" fill="#00E6CC" points="785.000166 29.9775 774.900166 40.0775 760.000166 24.9775 770.000166 14.9775"></polyline>
            <path d="M798.510166,9.3125 C800.460166,11.3825 800.460166,14.5125 798.510166,16.4625 L790.000166,24.9775 L775.000166,9.9775 L783.510166,1.4625 C785.460166,-0.4875 788.590166,-0.4875 790.660166,1.4625 L798.510166,9.3125 Z" id="Path" fill="#00CCFF"></path>
        </g>
        <g id="loading-dots" transform="translate(50.944556, 1520.000000)" fill="#FFFFFF" fill-rule="nonzero">
            <g id="Group">
                <path d="M60,10 C60,15.55 64.45,20 70,20 C75.55,20 80,15.55 80,10 C80,4.45 75.55,0 70,0 C64.45,0 60,4.45 60,10 Z M0,10 C0,15.55 4.45,20 10,20 C15.55,20 20,15.55 20,10 C20,4.45 15.55,0 10,0 C4.45,0 0,4.45 0,10 Z M30,10 C30,15.55 34.45,20 40,20 C45.55,20 50,15.55 50,10 C50,4.45 45.55,0 40,0 C34.45,0 30,4.45 30,10 Z" id="Shape"></path>
                <path d="M240,10 C240,15.55 244.45,20 250,20 C255.55,20 260,15.55 260,10 C260,4.45 255.55,0 250,0 C244.45,0 240,4.45 240,10 Z" id="Path" opacity="0.5"></path>
                <path d="M180,10 C180,15.55 184.45,20 190,20 C195.55,20 200,15.55 200,10 C200,4.45 195.55,0 190,0 C184.45,0 180,4.45 180,10 Z" id="Path"></path>
                <path d="M210,10 C210,15.55 214.45,20 220,20 C225.55,20 230,15.55 230,10 C230,4.45 225.55,0 220,0 C214.45,0 210,4.45 210,10 Z M420,10 C420,15.55 424.45,20 430,20 C435.55,20 440,15.55 440,10 C440,4.45 435.55,0 430,0 C424.45,0 420,4.45 420,10 Z" id="Shape" opacity="0.499"></path>
                <path d="M360,10 C360,15.55 364.45,20 370,20 C375.55,20 380,15.55 380,10 C380,4.45 375.55,0 370,0 C364.45,0 360,4.45 360,10 Z" id="Path" opacity="0.75"></path>
                <path d="M390,10 C390,15.55 394.45,20 400,20 C405.55,20 410,15.55 410,10 C410,4.45 405.55,0 400,0 C394.45,0 390,4.45 390,10 Z M600,10 C600,15.55 604.45,20 610,20 C615.55,20 620,15.55 620,10 C620,4.45 615.55,0 610,0 C604.45,0 600,4.45 600,10 Z" id="Shape"></path>
                <path d="M540,10 C540,15.55 544.45,20 550,20 C555.55,20 560,15.55 560,10 C560,4.45 555.55,0 550,0 C544.45,0 540,4.45 540,10 Z" id="Path" opacity="0.5"></path>
                <path d="M570,10 C570,15.55 574.45,20 580,20 C585.55,20 590,15.55 590,10 C590,4.45 585.55,0 580,0 C574.45,0 570,4.45 570,10 Z M780,10 C780,15.55 784.45,20 790,20 C795.55,20 800,15.55 800,10 C800,4.45 795.55,0 790,0 C784.45,0 780,4.45 780,10 Z" id="Shape" opacity="0.75"></path>
                <path d="M720,10 C720,15.55 724.45,20 730,20 C735.55,20 740,15.55 740,10 C740,4.45 735.55,0 730,0 C724.45,0 720,4.45 720,10 Z M750,10 C750,15.55 754.45,20 760,20 C765.55,20 770,15.55 770,10 C770,4.45 765.55,0 760,0 C754.45,0 750,4.45 750,10 Z" id="Shape" opacity="0.5"></path>
            </g>
        </g>
        <g id="permalink" transform="translate(50.904556, 1280.000000)" fill-rule="nonzero">
            <g id="Group" transform="translate(0.000000, 30.042977)" fill="#FFFFFF">
                <path d="M49.49,61.1670234 L36.99,73.6670234 C28.555,82.1070234 14.84,82.1070234 6.33,73.6670234 C-2.11,65.1520234 -2.11,51.4420234 6.33,43.0020234 L17.73,31.6020234 C17.345,35.8520234 17.89,40.1020234 19.38,44.1020234 L13.48,50.0020234 C8.94742422,54.5486891 8.94742422,61.9053577 13.48,66.4520234 C18.045917,70.9662706 25.394083,70.9662706 29.96,66.4520234 L42.345,54.0520234 C46.995,49.5220234 46.995,42.1020234 42.345,37.5670234 C40.3946277,35.582706 40.3946277,32.4013408 42.345,30.4170234 C44.345,28.4670234 47.545,28.4670234 49.495,30.4170234 C57.895,38.9270234 57.895,52.6420234 49.495,61.0770234 L49.49,61.1670234 L49.49,61.1670234 Z" id="Path"></path>
                <path d="M73.64,36.9870234 L62.34,48.2770234 C62.74,44.0270234 62.19,39.8770234 60.705,35.8970234 L66.605,29.8770234 C71.1355673,25.3178242 71.1355673,17.9562226 66.605,13.3970234 C62.0452172,8.8631427 54.6797828,8.8631427 50.12,13.3970234 L37.62,25.7770234 C33.0861922,30.3816483 33.0861922,37.7723985 37.62,42.3770234 C38.6092742,43.278969 39.1730086,44.5558041 39.1730086,45.8945234 C39.1730086,47.2332427 38.6092742,48.5100778 37.62,49.4120234 C36.6889988,50.3484905 35.4230051,50.8750542 34.1025,50.8750542 C32.7819949,50.8750542 31.5160012,50.3484905 30.585,49.4120234 C22.1853604,40.9217991 22.1853604,27.2522477 30.585,18.7620234 L42.985,6.41202339 C47.0192917,2.31016541 52.531675,0 58.285,0 C64.038325,0 69.5507083,2.31016541 73.585,6.41202339 C82.135,14.8120234 82.135,28.5620234 73.585,37.0620234 L73.64,36.9870234 L73.64,36.9870234 Z" id="Path"></path>
            </g>
            <path d="M224.49,96.21 L211.99,108.71 C203.555,117.15 189.84,117.15 181.33,108.71 C172.89,100.195 172.89,86.485 181.33,78.045 L192.73,66.645 C192.345,70.895 192.89,75.145 194.38,79.145 L188.48,85.045 C183.947424,89.5916657 183.947424,96.9483343 188.48,101.495 C193.045917,106.009247 200.394083,106.009247 204.96,101.495 L217.345,89.095 C221.995,84.565 221.995,77.145 217.345,72.61 C215.394628,70.6256826 215.394628,67.4443174 217.345,65.46 C219.345,63.51 222.545,63.51 224.495,65.46 C232.895,73.97 232.895,87.685 224.495,96.12 L224.49,96.21 L224.49,96.21 Z" id="Path" fill="#FFFFFF"></path>
            <path d="M258.64,62.03 L247.34,73.32 C247.74,69.07 247.19,64.92 245.705,60.94 L251.605,54.92 C256.135567,50.3608008 256.135567,42.9991992 251.605,38.44 C247.045217,33.9061193 239.679783,33.9061193 235.12,38.44 L222.62,50.82 C218.086192,55.4246249 218.086192,62.8153751 222.62,67.42 C223.609274,68.3219456 224.173009,69.5987807 224.173009,70.9375 C224.173009,72.2762193 223.609274,73.5530544 222.62,74.455 C221.688999,75.3914671 220.423005,75.9180308 219.1025,75.9180308 C217.781995,75.9180308 216.516001,75.3914671 215.585,74.455 C207.18536,65.9647757 207.18536,52.2952243 215.585,43.805 L227.985,31.455 C232.019292,27.353142 237.531675,25.0429766 243.285,25.0429766 C249.038325,25.0429766 254.550708,27.353142 258.585,31.455 C267.135,39.855 267.135,53.605 258.585,62.105 L258.64,62.03 L258.64,62.03 Z" id="Path" fill="#FFFFFF"></path>
            <path d="M190.04,50 L170.04,30 L175.04,25 L195.04,45 L190.04,50 Z M200.04,40 L200.04,15 L205.04,15 L205.04,40 L200.04,40 Z M160.04,55 L185.04,55 L185.04,60 L160.04,60 L160.04,55 Z M245.04,95 L265.04,115 L260.04,120 L240.04,100 L245.04,95 Z M235.04,105 L235.04,130 L230.04,130 L230.04,105 L235.04,105 Z M275.04,90 L250.04,90 L250.04,85 L275.04,85 L275.04,90 Z" id="Shape" fill="#FF6666" opacity="0.5"></path>
            <path d="M399.49,101.21 L386.99,113.71 C378.555,122.15 364.84,122.15 356.33,113.71 C347.89,105.195 347.89,91.485 356.33,83.045 L367.73,71.645 C367.345,75.895 367.89,80.145 369.38,84.145 L363.48,90.045 C358.947424,94.5916657 358.947424,101.948334 363.48,106.495 C368.045917,111.009247 375.394083,111.009247 379.96,106.495 L392.345,94.095 C396.995,89.565 396.995,82.145 392.345,77.61 C390.394628,75.6256826 390.394628,72.4443174 392.345,70.46 C394.345,68.51 397.545,68.51 399.495,70.46 C407.895,78.97 407.895,92.685 399.495,101.12 L399.49,101.21 L399.49,101.21 Z M443.64,57.03 L432.34,68.32 C432.74,64.07 432.19,59.92 430.705,55.94 L436.605,49.92 C441.135567,45.3608008 441.135567,37.9991992 436.605,33.44 C432.045217,28.9061193 424.679783,28.9061193 420.12,33.44 L407.62,45.82 C403.086192,50.4246249 403.086192,57.8153751 407.62,62.42 C408.609274,63.3219456 409.173009,64.5987807 409.173009,65.9375 C409.173009,67.2762193 408.609274,68.5530544 407.62,69.455 C406.688999,70.3914671 405.423005,70.9180308 404.1025,70.9180308 C402.781995,70.9180308 401.516001,70.3914671 400.585,69.455 C392.18536,60.9647757 392.18536,47.2952243 400.585,38.805 L412.985,26.455 C417.019292,22.353142 422.531675,20.0429766 428.285,20.0429766 C434.038325,20.0429766 439.550708,22.353142 443.585,26.455 C452.135,34.855 452.135,48.605 443.585,57.105 L443.64,57.03 L443.64,57.03 Z" id="Shape" fill="#FFFFFF"></path>
            <path d="M365.04,45 L345.04,25 L350.04,20 L370.04,40 L365.04,45 Z M380.04,35 L380.04,10 L385.04,10 L385.04,35 L380.04,35 Z M335.04,55 L360.04,55 L360.04,60 L335.04,60 L335.04,55 Z M430.04,100 L450.04,120 L445.04,125 L425.04,105 L430.04,100 Z M415.04,110 L415.04,135 L410.04,135 L410.04,110 L415.04,110 Z M460.04,90 L435.04,90 L435.04,85 L460.04,85 L460.04,90 Z" id="Shape" fill="#FF6666"></path>
            <path d="M574.49,106.21 L561.99,118.71 C553.555,127.15 539.84,127.15 531.33,118.71 C522.89,110.195 522.89,96.485 531.33,88.045 L542.73,76.645 C542.345,80.895 542.89,85.145 544.38,89.145 L538.48,95.045 C533.947424,99.5916657 533.947424,106.948334 538.48,111.495 C543.045917,116.009247 550.394083,116.009247 554.96,111.495 L567.345,99.095 C571.995,94.565 571.995,87.145 567.345,82.61 C565.394628,80.6256826 565.394628,77.4443174 567.345,75.46 C569.345,73.51 572.545,73.51 574.495,75.46 C582.895,83.97 582.895,97.685 574.495,106.12 L574.49,106.21 L574.49,106.21 Z M628.64,52.03 L617.34,63.32 C617.74,59.07 617.19,54.92 615.705,50.94 L621.605,44.92 C626.135567,40.3608008 626.135567,32.9991992 621.605,28.44 C617.045217,23.9061193 609.679783,23.9061193 605.12,28.44 L592.62,40.82 C588.086192,45.4246249 588.086192,52.8153751 592.62,57.42 C593.609274,58.3219456 594.173009,59.5987807 594.173009,60.9375 C594.173009,62.2762193 593.609274,63.5530544 592.62,64.455 C591.688999,65.3914671 590.423005,65.9180308 589.1025,65.9180308 C587.781995,65.9180308 586.516001,65.3914671 585.585,64.455 C577.18536,55.9647757 577.18536,42.2952243 585.585,33.805 L597.985,21.455 C602.019292,17.353142 607.531675,15.0429766 613.285,15.0429766 C619.038325,15.0429766 624.550708,17.353142 628.585,21.455 C637.135,29.855 637.135,43.605 628.585,52.105 L628.64,52.03 L628.64,52.03 Z" id="Shape" fill="#FFFFFF"></path>
            <path d="M540.04,40 L520.04,20 L525.04,15 L545.04,35 L540.04,40 Z M560.04,30 L560.04,5 L565.04,5 L565.04,30 L560.04,30 Z M510.04,55 L535.04,55 L535.04,60 L510.04,60 L510.04,55 Z M615.04,105 L635.04,125 L630.04,130 L610.04,110 L615.04,105 Z M595.04,115 L595.04,140 L590.04,140 L590.04,115 L595.04,115 Z M645.04,90 L620.04,90 L620.04,85 L645.04,85 L645.04,90 Z" id="Shape" fill="#FF6666"></path>
            <path d="M749.49,111.21 L736.99,123.71 C728.555,132.15 714.84,132.15 706.33,123.71 C697.89,115.195 697.89,101.485 706.33,93.045 L717.73,81.645 C717.345,85.895 717.89,90.145 719.38,94.145 L713.48,100.045 C708.947424,104.591666 708.947424,111.948334 713.48,116.495 C718.045917,121.009247 725.394083,121.009247 729.96,116.495 L742.345,104.095 C746.995,99.565 746.995,92.145 742.345,87.61 C740.394628,85.6256826 740.394628,82.4443174 742.345,80.46 C744.345,78.51 747.545,78.51 749.495,80.46 C757.895,88.97 757.895,102.685 749.495,111.12 L749.49,111.21 Z M813.64,47.03 L802.34,58.32 C802.74,54.07 802.19,49.92 800.705,45.94 L806.605,39.92 C811.135567,35.3608008 811.135567,27.9991992 806.605,23.44 C802.045217,18.9061193 794.679783,18.9061193 790.12,23.44 L777.62,35.82 C773.086192,40.4246249 773.086192,47.8153751 777.62,52.42 C778.609274,53.3219456 779.173009,54.5987807 779.173009,55.9375 C779.173009,57.2762193 778.609274,58.5530544 777.62,59.455 C776.688999,60.3914671 775.423005,60.9180308 774.1025,60.9180308 C772.781995,60.9180308 771.516001,60.3914671 770.585,59.455 C762.18536,50.9647757 762.18536,37.2952243 770.585,28.805 L782.985,16.455 C787.019292,12.353142 792.531675,10.0429766 798.285,10.0429766 C804.038325,10.0429766 809.550708,12.353142 813.585,16.455 C822.135,24.855 822.135,38.605 813.585,47.105 L813.64,47.03 L813.64,47.03 Z" id="Shape" fill="#FFFFFF"></path>
            <path d="M715.04,35 L695.04,15 L700.04,10 L720.04,30 L715.04,35 Z M740.04,25 L740.04,0 L745.04,0 L745.04,25 L740.04,25 Z M685.04,55 L710.04,55 L710.04,60 L685.04,60 L685.04,55 Z M800.04,110 L820.04,130 L815.04,135 L795.04,115 L800.04,110 Z M775.04,120 L775.04,145 L770.04,145 L770.04,120 L775.04,120 Z M830.04,90 L805.04,90 L805.04,85 L830.04,85 L830.04,90 Z" id="Shape" fill="#FF6666"></path>
        </g>
        <g id="embed" transform="translate(40.944778, 1134.999947)">
            <path d="M22.0097779,5.00005344 C20.9781675,5.05772072 20.0207106,5.55465179 19.3797779,6.36505344 L0.389777916,33.6350534 C-0.129925972,34.4708523 -0.129925972,35.5292546 0.389777916,36.3650534 L19.3797779,63.6350534 C19.9047779,64.3850534 21.0797779,65.0000534 22.0097779,65.0000534 L34.3247779,65.0000534 C35.2497779,65.0000534 35.5647779,64.3750534 35.0497779,63.6350534 L16.0597779,36.3650534 C15.540074,35.5292546 15.540074,34.4708523 16.0597779,33.6350534 L35.0497779,6.36505344 C35.5747779,5.61505344 35.2497779,5.00005344 34.3247779,5.00005344 L22.0097779,5.00005344 L22.0097779,5.00005344 Z M77.6097779,65.0000534 C78.8097779,65.0000534 80.3097779,64.2600534 80.9797779,63.3000534 L99.5047779,36.7000534 C100.204744,35.674798 100.204744,34.3253089 99.5047779,33.3000534 L81.0047779,6.70005344 C80.1942037,5.66617316 78.9677987,5.04381843 77.6547779,5.00005344 L66.3047779,5.00005344 C65.1047779,5.00005344 64.6547779,5.74005344 65.3547779,6.70005344 L83.8897779,33.3000534 C84.5477325,34.3378932 84.5477325,35.6622137 83.8897779,36.7000534 L65.3647779,63.3000534 C64.7147779,64.2400534 65.1147779,65.0000534 66.3647779,65.0000534 L77.6097779,65.0000534 L77.6097779,65.0000534 Z M202.064778,5.00005344 C201.033168,5.05772072 200.075711,5.55465179 199.434778,6.36505344 L180.434778,33.6350534 C179.919762,34.472185 179.919762,35.5279218 180.434778,36.3650534 L199.434778,63.6350534 C199.954778,64.3850534 201.134778,65.0000534 202.059778,65.0000534 L214.374778,65.0000534 C215.309778,65.0000534 215.624778,64.3750534 215.109778,63.6350534 L196.129778,36.3650534 C195.614762,35.5279218 195.614762,34.472185 196.129778,33.6350534 L215.129778,6.36505344 C215.654778,5.61505344 215.329778,5.00005344 214.404778,5.00005344 L202.054778,5.00005344 L202.064778,5.00005344 L202.064778,5.00005344 Z M257.664778,65.0000534 C258.864778,65.0000534 260.364778,64.2600534 261.034778,63.3000534 L279.559778,36.7000534 C280.254172,35.673084 280.254172,34.3270229 279.559778,33.3000534 L261.059778,6.70005344 C260.247866,5.66780309 259.022273,5.04586066 257.709778,5.00005344 L246.359778,5.00005344 C245.159778,5.00005344 244.709778,5.74005344 245.359778,6.70005344 L263.889778,33.3000534 C264.547732,34.3378932 264.547732,35.6622137 263.889778,36.7000534 L245.364778,63.3000534 C244.714778,64.2400534 245.114778,65.0000534 246.364778,65.0000534 L257.664778,65.0000534 L257.664778,65.0000534 Z M387.064778,5.00005344 C386.033387,5.04936339 385.057766,5.48277491 384.329778,6.21505344 L360.529778,33.7850534 C359.953935,34.4927092 359.953935,35.5073977 360.529778,36.2150534 L384.329778,63.7850534 C384.889778,64.4550534 386.129778,65.0000534 387.039778,65.0000534 L399.354778,65.0000534 C400.274778,65.0000534 400.529778,64.4250534 399.979778,63.7850534 L376.179778,36.2150534 C375.631297,35.4979026 375.631297,34.5022043 376.179778,33.7850534 L399.979778,6.21505344 C400.579778,5.54505344 400.279778,5.00005344 399.379778,5.00005344 L387.064778,5.00005344 L387.064778,5.00005344 Z M432.664778,65.0000534 C433.864778,65.0000534 435.364778,64.2600534 436.014778,63.3000534 L459.549778,36.7000534 C460.244172,35.673084 460.244172,34.3270229 459.549778,33.3000534 L436.049778,6.70005344 C435.237866,5.66780309 434.012273,5.04586066 432.699778,5.00005344 L421.349778,5.00005344 C420.149778,5.00005344 419.699778,5.74005344 420.359778,6.70005344 L443.874778,33.3000534 C444.535196,34.3371767 444.535196,35.6629302 443.874778,36.7000534 L420.354778,63.3000534 C419.704778,64.2400534 420.104778,65.0000534 421.354778,65.0000534 L432.664778,65.0000534 L432.664778,65.0000534 Z" id="Shape" fill="#FFFFFF" fill-rule="nonzero"></path>
            <g id="Group" transform="translate(539.999778, 5.000053)" fill-rule="nonzero">
                <path d="M67.615,60 C68.815,60 70.315,59.26 70.98,58.3 C70.98,58.3 100,37.45 100,30 C100,22.55 70.98,1.7 70.98,1.7 C70.33,0.76 68.86,0 67.615,0 L56.3,0 C55.1,0 54.65,0.74 55.31,1.7 C55.31,1.7 85,26.31 85,30 C85,33.69 55.31,58.3 55.31,58.3 C54.66,59.24 55.06,60 56.31,60 M32.385,60 C31.185,60 29.685,59.26 29.02,58.3 C29.02,58.3 0,37.45 0,30 C0,22.55 29.02,1.7 29.02,1.7 C29.67,0.76 31.14,0 32.385,0 L43.7,0 C44.9,0 45.35,0.74 44.69,1.7 C44.69,1.7 15,26.31 15,30 C15,33.69 44.69,58.3 44.69,58.3 C45.34,59.24 44.94,60 43.69,60" id="Shape" fill="#FFFFFF"></path>
                <circle id="Oval" fill="#00FF99" cx="50" cy="30" r="5"></circle>
            </g>
            <g id="Clipped" transform="translate(719.999778, 0.000000)">
                <mask id="mask-2" fill="white">
                    <use xlink:href="#path-1"></use>
                </mask>
                <g id="a"></g>
                <path d="M0,35.0000534 C0,35.0000534 4.865,-0.0499465558 50,0 C95.135,0.0500534442 100,35.0000534 100,35.0000534 C100,35.0000534 95.05,70.0700534 50,70.0250967 C4.95,69.9750534 0,35.0000534 0,35.0000534 Z" id="Path" stroke="#FFFFFF" stroke-width="30" mask="url(#mask-2)"></path>
            </g>
            <g id="Clipped" transform="translate(754.999778, 20.000053)">
                <mask id="mask-4" fill="white">
                    <use xlink:href="#path-3"></use>
                </mask>
                <g id="c"></g>
                <circle id="Oval" stroke="#00FF99" stroke-width="20" mask="url(#mask-4)" cx="15" cy="15" r="15"></circle>
            </g>
        </g>
        <g id="full-screen" transform="translate(50.944556, 775.000000)" fill-rule="nonzero">
            <path d="M5,0 L0,0 L0,20 L10,20 L10,10 L25,10 L25,0 L5,0 Z M70,10 L70,20 L80,20 L80,0 L55,0 L55,10 L70,10 Z M75,65 L80,65 L80,45 L70,45 L70,55 L55,55 L55,65 L75,65 Z M5,65 L0,65 L0,45 L10,45 L10,55 L25,55 L25,65 L5,65 Z M185,0 L180,0 L180,20 L190,20 L190,10 L205,10 L205,0 L185,0 Z M255,0 L260,0 L260,20 L250,20 L250,10 L235,10 L235,0 L255,0 Z M255,65 L260,65 L260,45 L250,45 L250,55 L235,55 L235,65 L255,65 Z M185,65 L180,65 L180,45 L190,45 L190,55 L205,55 L205,65 L185,65 Z" id="Shape" fill="#FFFFFF"></path>
            <polygon id="Path" fill="#FF6666" points="210 25 230 25 230 40 210 40"></polygon>
            <path d="M365,0 L360,0 L360,25 L370,25 L370,10 L390,10 L390,0 L365,0 Z M435,0 L440,0 L440,25 L430,25 L430,10 L410,10 L410,0 L435,0 Z M435,65 L440,65 L440,40 L430,40 L430,55 L410,55 L410,65 L435,65 Z M365,65 L360,65 L360,40 L370,40 L370,55 L390,55 L390,65 L365,65 Z" id="Shape" fill="#FFFFFF"></path>
            <polygon id="Path" fill="#FFF35C" points="380 20 420 20 420 45 380 45"></polygon>
            <path d="M545,0 L540,0 L540,30 L550,30 L550,10 L575,10 L575,0 L545,0 Z M615,0 L620,0 L620,30 L610,30 L610,10 L585,10 L585,0 L615,0 Z M615,65 L620,65 L620,35 L610,35 L610,55 L585,55 L585,65 L615,65 Z M545,65 L540,65 L540,35 L550,35 L550,55 L575,55 L575,65 L545,65 Z" id="Shape" fill="#FFFFFF"></path>
            <polygon id="Path" fill="#00FF99" points="555 15 605 15 605 50 555 50"></polygon>
            <path d="M725,65 L720,65 L720,0 L800,0 L800,65 L725,65 Z M730,55 L790,55 L790,10 L730,10 L730,55 Z" id="Shape" fill="#FFFFFF"></path>
            <polygon id="Path" fill="#00CCFF" points="730 10 790 10 790 55 730 55"></polygon>
        </g>
        <g id="grid" transform="translate(50.944556, 595.000000)" fill-rule="nonzero">
            <path d="M60,0 L80,0 L80,15 L60,15 L60,0 Z M30,0 L50,0 L50,15 L30,15 L30,0 Z M0,0 L20,0 L20,15 L0,15 L0,0 Z M60,25 L80,25 L80,40 L60,40 L60,25 Z M30,25 L50,25 L50,40 L30,40 L30,25 Z M0,25 L20,25 L20,40 L0,40 L0,25 Z M60,50 L80,50 L80,65 L60,65 L60,50 Z M30,50 L50,50 L50,65 L30,65 L30,50 Z M0,50 L20,50 L20,65 L0,65 L0,50 Z" id="Shape" fill="#FFFFFF"></path>
            <polygon id="Path" fill="#00FF99" points="240 0 260 0 260 15 240 15"></polygon>
            <polygon id="Path" fill="#FFF35C" points="210 0 230 0 230 15 210 15"></polygon>
            <polygon id="Path" fill="#9933FF" points="180 0 200 0 200 15 180 15"></polygon>
            <polygon id="Path" fill="#FF6666" points="240 25 260 25 260 40 240 40"></polygon>
            <polygon id="Path" fill="#00FF99" points="210 25 230 25 230 40 210 40"></polygon>
            <polygon id="Path" fill="#00CCFF" points="180 25 200 25 200 40 180 40"></polygon>
            <polygon id="Path" fill="#FFF35C" points="240 50 260 50 260 65 240 65"></polygon>
            <polygon id="Path" fill="#9933FF" points="210 50 230 50 230 65 210 65"></polygon>
            <polygon id="Path" fill="#FF6666" points="180 50 200 50 200 65 180 65"></polygon>
            <polygon id="Path" fill="#00CCFF" points="420 0 440 0 440 15 420 15"></polygon>
            <polygon id="Path" fill="#9013FE" points="390 0 410 0 410 15 390 15"></polygon>
            <polygon id="Path" fill="#FF6666" points="360 0 380 0 380 15 360 15"></polygon>
            <polygon id="Path" fill="#FFF35C" points="420 25 440 25 440 40 420 40"></polygon>
            <polygon id="Path" fill="#FF6666" points="390 25 410 25 410 40 390 40"></polygon>
            <path d="M360,25 L380,25 L380,40 L360,40 L360,25 Z M420,50 L440,50 L440,65 L420,65 L420,50 Z" id="Shape" fill="#9013FE"></path>
            <polygon id="Path" fill="#00FF99" points="390 50 410 50 410 65 390 65"></polygon>
            <polygon id="Path" fill="#00CCFF" points="360 50 380 50 380 65 360 65"></polygon>
            <polygon id="Path" fill="#FFF35C" points="600 0 620 0 620 15 600 15"></polygon>
            <polygon id="Path" fill="#00CCFF" points="570 0 590 0 590 15 570 15"></polygon>
            <path d="M540,0 L560,0 L560,15 L540,15 L540,0 Z M600,25 L620,25 L620,40 L600,40 L600,25 Z" id="Shape" fill="#00FF99"></path>
            <polygon id="Path" fill="#9013FE" points="570 25 590 25 590 40 570 40"></polygon>
            <polygon id="Path" fill="#FFF35C" points="540 25 560 25 560 40 540 40"></polygon>
            <polygon id="Path" fill="#00CCFF" points="600 50 620 50 620 65 600 65"></polygon>
            <polygon id="Path" fill="#FFF35C" points="570 50 590 50 590 65 570 65"></polygon>
            <polygon id="Path" fill="#FF6666" points="540 50 560 50 560 65 540 65"></polygon>
            <polygon id="Path" fill="#9933FF" points="780 0 800 0 800 15 780 15"></polygon>
            <polygon id="Path" fill="#FF6666" points="750 0 770 0 770 15 750 15"></polygon>
            <polygon id="Path" fill="#00CCFF" points="720 0 740 0 740 15 720 15"></polygon>
            <path d="M780,25 L800,25 L800,40 L780,40 L780,25 Z M750,25 L770,25 L770,40 L750,40 L750,25 Z" id="Shape" fill="#FFF35C"></path>
            <polygon id="Path" fill="#FF6666" points="720 25 740 25 740 40 720 40"></polygon>
            <polygon id="Path" fill="#00FF99" points="780 50 800 50 800 65 780 65"></polygon>
            <polygon id="Path" fill="#00CCFF" points="750 50 770 50 770 65 750 65"></polygon>
            <polygon id="Path" fill="#00FF99" points="720 50 740 50 740 65 720 65"></polygon>
        </g>
        <g id="tv" transform="translate(50.944556, 385.000000)" fill-rule="nonzero">
            <path d="M0,35 L0,30 L80,30 L80,95 L0,95 L0,35 Z M10,40 L10,85 L70,85 L70,40 L10,40 Z M40,20 L50,20 L50,30 L40,30 L40,20 Z M30,20 L40,20 L40,30 L30,30 L30,20 Z M20,10 L30,10 L30,20 L20,20 L20,10 Z M10,0 L20,0 L20,10 L10,10 L10,0 Z M50,10 L60,10 L60,20 L50,20 L50,10 Z M60,0 L70,0 L70,10 L60,10 L60,0 Z" id="Shape" fill="#FFFFFF"></path>
            <polyline id="Path" fill="#00CCFF" points="190 80 200 70 210 80 220 70 230 80 240 70 250 80 250 85 190 85"></polyline>
            <polyline id="Path" fill="#FF6666" points="190 55 200 45 210 55 220 45 230 55 240 45 250 55 250 80 239.99 70 230 80 220 70 210 80 200 70 190 80"></polyline>
            <polyline id="Path" fill="#9933FF" points="190 40 250 40 250 55 239.99 45 230 55 220 45 210 55 200 45 190 55"></polyline>
            <path d="M180,35 L180,30 L260,30 L260,95 L180,95 L180,35 Z M190,40 L190,85 L250,85 L250,40 L190,40 Z M220,20 L230,20 L230,30 L220,30 L220,20 Z M210,20 L220,20 L220,30 L210,30 L210,20 Z M200,10 L210,10 L210,20 L200,20 L200,10 Z M190,0 L200,0 L200,10 L190,10 L190,0 Z M230,10 L240,10 L240,20 L230,20 L230,10 Z M240,0 L250,0 L250,10 L240,10 L240,0 Z" id="Shape" fill="#FFFFFF"></path>
            <polyline id="Path" fill="#FF6666" points="370 80 380 70 390 80 400 70 410 80 420 70 430 80 430 85 370 85"></polyline>
            <polyline id="Path" fill="#9933FF" points="370 55 380 45 390 55 400 45 410 55 420 45 430 55 430 80 419.99 70 410 80 400 70 390 80 380 70 370 80"></polyline>
            <polyline id="Path" fill="#00FF99" points="370 40 430 40 430 55 419.99 45 410 55 400 45 390 55 380 45 370 55"></polyline>
            <path d="M360,35 L360,30 L440,30 L440,95 L360,95 L360,35 Z M370,40 L370,85 L430,85 L430,40 L370,40 Z M400,20 L410,20 L410,30 L400,30 L400,20 Z M390,20 L400,20 L400,30 L390,30 L390,20 Z M380,10 L390,10 L390,20 L380,20 L380,10 Z M370,0 L380,0 L380,10 L370,10 L370,0 Z M410,10 L420,10 L420,20 L410,20 L410,10 Z M420,0 L430,0 L430,10 L420,10 L420,0 Z" id="Shape" fill="#FFFFFF"></path>
            <polyline id="Path" fill="#9933FF" points="550 80 560 70 570 80 580 70 590 80 600 70 610 80 610 85 550 85"></polyline>
            <polyline id="Path" fill="#00FF99" points="550 55 560 45 570 55 580 45 590 55 600 45 610 55 610 80 599.99 70 590 80 580 70 570 80 560 70 550 80"></polyline>
            <polyline id="Path" fill="#00CCFF" points="550 40 610 40 610 55 599.99 45 590 55 580 45 570 55 560 45 550 55"></polyline>
            <path d="M540,35 L540,30 L620,30 L620,95 L540,95 L540,35 Z M550,40 L550,85 L610,85 L610,40 L550,40 Z M580,20 L590,20 L590,30 L580,30 L580,20 Z M570,20 L580,20 L580,30 L570,30 L570,20 Z M560,10 L570,10 L570,20 L560,20 L560,10 Z M550,0 L560,0 L560,10 L550,10 L550,0 Z M590,10 L600,10 L600,20 L590,20 L590,10 Z M600,0 L610,0 L610,10 L600,10 L600,0 Z" id="Shape" fill="#FFFFFF"></path>
            <polyline id="Path" fill="#00FF99" points="730 80 740 70 750 80 760 70 770 80 780 70 790 80 790 85 730 85"></polyline>
            <polyline id="Path" fill="#00CCFF" points="730 55 740 45 750 55 760 45 770 55 780 45 790 55 790 80 779.99 70 770 80 760 70 750 80 740 70 730 80"></polyline>
            <polyline id="Path" fill="#FF6666" points="730 40 790 40 790 55 779.99 45 770 55 760 45 750 55 740 45 730 55"></polyline>
            <path d="M720,35 L720,30 L800,30 L800,95 L720,95 L720,35 Z M730,40 L730,85 L790,85 L790,40 L730,40 Z M760,20 L770,20 L770,30 L760,30 L760,20 Z M750,20 L760,20 L760,30 L750,30 L750,20 Z M740,10 L750,10 L750,20 L740,20 L740,10 Z M730,0 L740,0 L740,10 L730,10 L730,0 Z M770,10 L780,10 L780,20 L770,20 L770,10 Z M780,0 L790,0 L790,10 L780,10 L780,0 Z" id="Shape" fill="#FFFFFF"></path>
        </g>
        <g id="unfavorite" transform="translate(55.944556, 240.000000)" fill-rule="nonzero">
            <polyline id="Path" fill="#FF6666" points="10 0 30 0 30 10 40 10 40 0 60 0 60 10 70 10 70 30 60 30 60 40 50.015 40 50.015 50 40 50 40 60 30 60 30 50 20 50 20 40 10 40 10 30 0 30 0 10 10 10"></polyline>
            <polyline id="Path" fill="#FFFFFF" points="190 0 210 0 210 10 220 10 220 0 240 0 240 10 250 10 250 30 240 30 240 40 230.015 40 230.015 50 220 50 220 60 210 60 210 50 200 50 200 40 190 40 190 30 180 30 180 10 190 10"></polyline>
            <path d="M180,10 L250,10 L250,30 L180,30 L180,10 Z M190,30 L240,30 L240,50 L190,50 L190,30 Z M210,50 L220,50 L220,70 L210,70 L210,50 Z M220,50 L230,50 L230,55 L220,55 L220,50 Z M190,60 L200,60 L200,80 L190,80 L190,60 Z M210,80 L220,80 L220,90 L210,90 L210,80 Z" id="Shape" fill="#FF6666"></path>
            <polyline id="Path" fill="#FFFFFF" points="370 0 390 0 390 10 400 10 400 0 420 0 420 10 430 10 430 30 420 30 420 40 410.015 40 410.015 50 400 50 400 60 390 60 390 50 380 50 380 40 370 40 370 30 360 30 360 10 370 10"></polyline>
            <path d="M370,35 L420,35 L420,40 L370,40 L370,35 Z M380,40 L410,40 L410,50 L380,50 L380,40 Z M390,50 L400,50 L400,60 L390,60 L390,50 Z M400,50 L410,50 L410,70 L400,70 L400,50 Z M390,70 L400,70 L400,80 L390,80 L390,70 Z M400,90 L410,90 L410,100 L400,100 L400,90 Z" id="Shape" fill="#FF6666"></path>
            <polyline id="Path" fill="#FFFFFF" points="550 0 570 0 570 10 580 10 580 0 600 0 600 10 610 10 610 30 600 30 600 40 590.015 40 590.015 50 580 50 580 60 570 60 570 50 560 50 560 40 550 40 550 30 540 30 540 10 550 10"></polyline>
            <path d="M560,45 L590,45 L590,50 L560,50 L560,45 Z M570,50 L580,50 L580,60 L570,60 L570,50 Z M570,70 L580,70 L580,80 L570,80 L570,70 Z" id="Shape" fill="#FF6666"></path>
            <polyline id="Path" fill="#FFFFFF" points="730 0 750 0 750 10 760 10 760 0 780 0 780 10 790 10 790 30 780 30 780 40 770.015 40 770.015 50 760 50 760 60 750 60 750 50 740 50 740 40 730 40 730 30 720 30 720 10 730 10"></polyline>
        </g>
        <g id="favorite" transform="translate(55.944556, 10.000000)" fill-rule="nonzero">
            <polyline id="Path" fill="#FFFFFF" points="10 50 30 50 30 60 40 60 40 50 60 50 60 60 70 60 70 80 60 80 60 90 50.015 90 50.015 100 40 100 40 110 30 110 30 100 20 100 20 90 10 90 10 80 0 80 0 60 10 60"></polyline>
            <polyline id="Path" fill="#FFFFFF" points="190 50 210 50 210 60 220 60 220 50 240 50 240 60 250 60 250 80 240 80 240 90 230.015 90 230.015 100 220 100 220 110 210 110 210 100 200 100 200 90 190 90 190 80 180 80 180 60 190 60"></polyline>
            <path d="M170,40 L175,40 L175,45 L170,45 L170,40 Z M170,35 L175,35 L175,40 L170,40 L170,35 Z M165,40 L170,40 L170,45 L165,45 L165,40 Z M160,40 L165,40 L165,45 L160,45 L160,40 Z M170,30 L175,30 L175,35 L170,35 L170,30 Z M165,35 L170,35 L170,40 L165,40 L165,35 Z M160,30 L165,30 L165,35 L160,35 L160,30 Z M155,25 L160,25 L160,30 L155,30 L155,25 Z M150,20 L155,20 L155,25 L150,25 L150,20 Z M145,15 L150,15 L150,20 L145,20 L145,15 Z M145,10 L150,10 L150,15 L145,15 L145,10 Z M140,15 L145,15 L145,20 L140,20 L140,15 Z M135,15 L140,15 L140,20 L135,20 L135,15 Z M140,10 L145,10 L145,15 L140,15 L140,10 Z M130,10 L135,10 L135,15 L130,15 L130,10 Z M135,10 L140,10 L140,15 L135,15 L135,10 Z M145,5 L150,5 L150,10 L145,10 L145,5 Z M140,5 L145,5 L145,10 L140,10 L140,5 Z M140,0 L145,0 L145,5 L140,5 L140,0 Z" id="Shape" fill="#FF6666"></path>
            <polyline id="Path" fill="#FFFFFF" points="370 50 390 50 390 60 400 60 400 50 420 50 420 60 430 60 430 80 420 80 420 90 410.015 90 410.015 100 400 100 400 110 390 110 390 100 380 100 380 90 370 90 370 80 360 80 360 60 370 60"></polyline>
            <path d="M370,60 L385,60 L385,65 L370,65 L370,60 Z M370,65 L380,65 L380,70 L370,70 L370,65 Z M370,70 L375,70 L375,75 L370,75 L370,70 Z M365,60 L370,60 L370,80 L365,80 L365,60 Z M360,60 L365,60 L365,80 L360,80 L360,60 Z M370,50 L390,50 L390,55 L370,55 L370,50 Z M365,55 L390,55 L390,60 L365,60 L365,55 Z M360,50 L365,50 L365,55 L360,55 L360,50 Z M355,45 L360,45 L360,50 L355,50 L355,45 Z M350,40 L355,40 L355,45 L350,45 L350,40 Z M345,35 L350,35 L350,40 L345,40 L345,35 Z M345,30 L350,30 L350,35 L345,35 L345,30 Z M340,35 L345,35 L345,40 L340,40 L340,35 Z M335,35 L340,35 L340,40 L335,40 L335,35 Z M340,30 L345,30 L345,35 L340,35 L340,30 Z M330,30 L335,30 L335,35 L330,35 L330,30 Z M335,30 L340,30 L340,35 L335,35 L335,30 Z M345,25 L350,25 L350,30 L345,30 L345,25 Z M340,25 L345,25 L345,30 L340,30 L340,25 Z M340,20 L345,20 L345,25 L340,25 L340,20 Z" id="Shape" fill="#FF6666"></path>
            <polyline id="Path" fill="#FFFFFF" points="550 50 570 50 570 60 580 60 580 50 600 50 600 60 610 60 610 80 600 80 600 90 590.015 90 590.015 100 580 100 580 110 570 110 570 100 560 100 560 90 550 90 550 80 540 80 540 60 550 60"></polyline>
            <path d="M550,50 L570,50 L570,90 L550,90 L550,50 Z M545,55 L550,55 L550,80 L545,80 L545,55 Z M540,60 L545,60 L545,80 L540,80 L540,60 Z M560,90 L565,90 L565,95 L560,95 L560,90 Z M570,60 L575,60 L575,85 L570,85 L570,60 Z M575,60 L580,60 L580,80 L575,80 L575,60 Z M580,50 L585,50 L585,75 L580,75 L580,50 Z M585,50 L590,50 L590,70 L585,70 L585,50 Z M590,50 L595,50 L595,65 L590,65 L590,50 Z M595,50 L600,50 L600,60 L595,60 L595,50 Z M540,50 L545,50 L545,55 L540,55 L540,50 Z M540,45 L545,45 L545,50 L540,50 L540,45 Z M535,50 L540,50 L540,55 L535,55 L535,50 Z M530,50 L535,50 L535,55 L530,55 L530,50 Z M535,45 L540,45 L540,50 L535,50 L535,45 Z M525,45 L530,45 L530,50 L525,50 L525,45 Z M530,45 L535,45 L535,50 L530,50 L530,45 Z M540,40 L545,40 L545,45 L540,45 L540,40 Z M535,40 L540,40 L540,45 L535,45 L535,40 Z M535,35 L540,35 L540,40 L535,40 L535,35 Z M730,50 L750,50 L750,60 L760,60 L760,50 L780,50 L780,60 L790,60 L790,80 L780,80 L780,90 L770.015,90 L770.015,100 L760,100 L760,110 L750,110 L750,100 L740,100 L740,90 L730,90 L730,80 L720,80 L720,60 L730,60 L730,50 Z" id="Shape" fill="#FF6666"></path>
        </g>
        <g id="share-bird" transform="translate(40.944778, 948.000000)">
            <path d="M82.9856697,2.04171909 L76.2432676,55.2673201 L72.6127435,84.3861005 C72.5410583,84.9834323 72.1761277,85.5022993 71.6446037,85.7626246 C71.1722956,86.0791251 70.5609729,86.0791251 70.0886647,85.7626246 L43.7414321,72.1738604 L34.1637636,85.2684877 C33.8756469,85.7207895 33.3782143,85.9880408 32.8498596,85.9743976 L32.227484,85.9743976 C31.4717902,85.7383042 31.0005365,84.9716242 31.1210386,84.1743275 L31.1210386,66.3148089 C31.0968147,65.9124716 31.2341409,65.5174131 31.5013792,65.2206486 L69.1551014,14.8539825 L20.1603132,58.7615737 C19.8151427,59.0037517 19.4033663,59.1273811 18.9847149,59.1145286 C18.7163963,59.1207746 18.452094,59.0471931 18.2240336,58.9027557 L0.935823278,49.9729964 C0.341233953,49.7198883 -0.0327271292,49.1119349 0.00225991793,48.4552902 C-0.00841941299,47.7873346 0.318105678,47.1607011 0.866670436,46.7964022 L40.5604014,23.5366733 L80.3578617,0.276944524 C80.9026027,-0.0923148412 81.6110946,-0.0923148412 82.1558356,0.276944524 C82.7490016,0.646838186 83.0739638,1.33792199 82.9856697,2.04171909 Z" id="_1" fill="#FFFFFF"></path>
            <path d="M263.98754,2.04264979 C263.98754,2.04264979 259.543259,29.5583606 259.018344,38.7889831 C258.493429,48.0196057 259.193316,63.4509518 259.193316,63.4509518 C259.177372,64.3874845 259.011954,65.3153436 258.703395,66.1989998 C258.247268,66.8636201 257.649483,67.4173077 256.953678,67.8196434 C246.996019,73.5255011 235.22331,75.1049862 224.128991,72.2235664 C224.128991,72.2235664 214.505548,85.2944098 214.505548,85.2944098 C214.202653,85.7515322 213.686245,86.018151 213.140769,85.9990375 L212.545865,85.9990375 C211.728604,85.729332 211.266283,84.8604852 211.496035,84.02608 L211.496035,66.1989998 C211.453083,65.7949957 211.594691,65.3932143 211.880973,65.1068269 L249.989805,14.8316421 L201.627633,57.8491618 C201.281428,58.1011952 200.865056,58.2368161 200.437825,58.236707 C200.165756,58.2472548 199.897028,58.1734689 199.66795,58.0253187 C193.61393,56.4046751 187.279955,40.4096268 187.279955,40.4096268 C187.103437,39.5516942 187.009683,38.6785954 187,37.8025044 C187.03525,37.1306138 187.386095,36.5157477 187.944847,36.1466293 C201.215442,32.6291867 214.109106,27.8026133 226.438617,21.7369934 C238.196714,15.7828895 261.222987,0.281080595 261.222987,0.281080595 C261.785185,-0.0936935316 262.515489,-0.0936935316 263.077687,0.281080595 C263.712081,0.62387713 264.073138,1.3229209 263.98754,2.04264979 Z" id="_2" fill="#00CCFF"></path>
            <path d="M444.961705,3.02214237 L432.966825,50.5604125 L423.771903,88.4026892 C423.727968,89.0034878 423.354164,89.5288174 422.804016,89.7629185 C422.345429,90.0790272 421.741639,90.0790272 421.283052,89.7629185 L405.796867,72.3240813 L396.290838,85.2636985 C396.002797,85.710646 395.505494,85.9747337 394.977278,85.961252 L394.355065,85.961252 C393.543972,85.7865172 393.002208,85.0121278 393.110639,84.1824906 L393.110639,66.5343874 C393.086422,66.1368128 393.223712,65.7464309 393.49088,65.4531794 L431.307591,15.6827382 L382.29105,59.070565 C381.992255,59.0395422 381.691094,59.0395422 381.392299,59.070565 C381.047003,59.0474929 380.700573,59.0474929 380.355277,59.070565 C374.720334,59.9616869 369.004774,60.2190319 363.31356,59.8378739 C362.655241,59.771284 362.119792,59.2736807 362,58.6171553 C362.033985,57.701824 362.40353,56.8318116 363.037021,56.1757181 L405.62403,27.05286 L442.438286,1.27825865 C442.993625,0.907247115 443.715019,0.907247115 444.270357,1.27825865 C444.832719,1.66208818 445.106577,2.35287978 444.961705,3.02214237 Z" id="_3" fill="#FF6666"></path>
            <path d="M805.969291,2.04228417 L791.907462,49.5256889 L780.622844,90.386779 C780.578164,90.993562 780.19801,91.5241241 779.638516,91.760557 C779.172139,92.0798143 778.558093,92.0798143 778.091715,91.760557 L766.20947,72.0345135 L756.541963,85.1030173 C756.249028,85.5544167 755.743278,85.8211349 755.206089,85.8075189 L754.573307,85.8075189 C753.820277,85.5898761 753.331393,84.8625018 753.413206,84.0814901 L753.413206,66.1871506 C753.388577,65.7856159 753.528199,65.3913456 753.799906,65.0951732 L792.012926,14.8289874 L742.093434,58.648984 C741.791805,58.7287508 741.497727,58.8348312 741.214569,58.9660097 C741.214569,58.9660097 740.335705,59.3534855 740.124778,59.3887106 C739.91385,59.4239357 727.60975,64.3906716 722.336564,63.4395945 C721.557371,63.3485472 720.977167,62.6753847 721,61.8896911 C721.035253,60.9652425 721.411075,60.0865644 722.055328,59.4239357 L766.068852,27.0168642 L803.332698,0.281030283 C803.89747,-0.0936767611 804.631118,-0.0936767611 805.19589,0.281030283 C805.794456,0.649554787 806.102527,1.35112118 805.969291,2.04228417 Z" id="_4" fill="#9933FF"></path>
            <path d="M624.95654,2.03718294 L608.903953,49.2262978 L595.404392,91.3908085 C595.359942,91.9960759 594.981752,92.5253128 594.425149,92.7611551 C593.961181,93.079615 593.350307,93.079615 592.886339,92.7611551 L585.262234,72.2059561 L575.644671,84.8904464 C575.35325,85.3407183 574.850113,85.6067702 574.315699,85.5931883 L573.686186,85.5931883 C572.937046,85.3760891 572.450688,84.6505316 572.532078,83.8714707 L572.532078,66.0218279 C572.507576,65.6212962 572.646477,65.2280106 572.916781,64.932578 L611.072276,14.7919474 L561.480624,58.5024901 C561.480624,58.5024901 560.676246,59.0295465 560.641273,59.0295465 C560.368157,59.2442645 560.075407,59.4325033 559.766949,59.59174 C559.766949,59.59174 548.575603,67.5678599 543.329659,66.6191584 C542.554491,66.5283385 541.977285,65.8568574 542,65.0731264 C542.03507,64.1509869 542.408951,63.2745035 543.049876,62.6135299 L585.961693,28.354865 L622.438487,0.280328324 C623.000342,-0.0934427747 623.7302,-0.0934427747 624.292054,0.280328324 C624.847883,0.676205722 625.110425,1.37034864 624.95654,2.03718294 Z" id="_5" fill="#00FF99"></path>
            <path d="M985.969291,2.04228417 L970.055222,49 L952.055222,92 C952.010541,92.606783 951.630387,93.1373452 951.070894,93.373778 C950.604517,93.6930354 949.99047,93.6930354 949.524093,93.373778 L946.20947,72.0345135 L936.797279,85.0078441 C936.504344,85.4592435 935.998594,85.7259617 935.461405,85.7123457 L934.828623,85.7123457 C934.075593,85.4947029 933.586709,84.7673286 933.668522,83.9863169 L933.668522,66.0919774 C933.643893,65.6904428 933.783515,65.2961724 934.055222,65 L972.012926,14.8289874 L921.023878,60.2602734 C920.722249,60.3400402 913.26615,67.9647749 913.055222,68 C912.844295,68.0352251 907.055222,73 907.055222,69 C908.055222,63 908.423308,64.2638276 910.055222,61 C911.687136,57.7361724 912.055222,57 914.055222,55 L946.068852,27.0168642 L983.332698,0.281030283 C983.89747,-0.0936767611 984.631118,-0.0936767611 985.19589,0.281030283 C985.794456,0.649554787 986.102527,1.35112118 985.969291,2.04228417 Z" id="6" fill="#FFF35C"></path>
        </g>
    </g>
</svg>