<?xml version="1.0"?>
<!--Icons from directory ""-->
 <svg
  xmlns="http://www.w3.org/2000/svg"
  width="38"
  height="76"
  viewBox="0 0 38 76"
>
  <svg height="38" viewBox="0 0 115 115" width="38" id="mute" y="0">
    <path
      d="M90.853 62.002a.637.637 0 010 .815l-4.036 4.036a.637.637 0 01-.815 0L79 59.851l-7.002 7.002a.637.637 0 01-.815 0l-4.036-4.036a.637.637 0 010-.815L74.149 55l-7.002-7.002a.637.637 0 010-.815l4.036-4.036a.637.637 0 01.815 0L79 50.149l7.002-7.002a.637.637 0 01.815 0l4.036 4.036a.637.637 0 010 .815L83.851 55l7.002 7.002zM59.48 26.507v56.986c0 .68-.305 1.148-.914 1.405-.703.211-1.253.094-1.651-.351L40.824 66.88H29.51c-.422 0-.78-.146-1.072-.439A1.458 1.458 0 0128 65.37V44.607c0-.422.146-.779.44-1.072.292-.292.65-.439 1.07-.439h11.314l16.09-17.643c.399-.445.95-.562 1.652-.351.609.257.913.726.913 1.405z"
      fill="#FFF"
    />
  </svg>
  <svg height="38" viewBox="0 0 115 115" width="38" id="volume" y="38">
    <g fill="#FFF">
      <path d="M59.48 26.507v56.986c0 .68-.305 1.148-.914 1.405-.703.211-1.253.094-1.651-.351L40.824 66.88H29.51c-.422 0-.78-.146-1.072-.439A1.458 1.458 0 0128 65.37V44.607c0-.422.146-.779.44-1.072.292-.292.65-.439 1.07-.439h11.314l16.09-17.643c.399-.445.95-.562 1.652-.351.609.257.913.726.913 1.405zM69.468 67.346l-2.837-6.4A6.501 6.501 0 0070.5 55a6.501 6.501 0 00-3.855-5.94l2.854-6.392A13.5 13.5 0 0177.5 55a13.5 13.5 0 01-8.032 12.346z" />
      <path d="M76.328 78.321l-2.838-6.4A18.503 18.503 0 0084.5 55a18.5 18.5 0 00-10.968-16.903l2.853-6.392A25.502 25.502 0 0191.5 55a25.502 25.502 0 01-15.172 23.321z" />
    </g>
  </svg>
</svg>
