<?xml version="1.0" encoding="UTF-8" standalone="no"?>
<svg width="2560px" height="160px" viewBox="0 0 2560 160" version="1.1" xmlns="http://www.w3.org/2000/svg" xmlns:xlink="http://www.w3.org/1999/xlink">
    <!-- Generator: Sketch 40.1 (33804) - http://www.bohemiancoding.com/sketch -->
    <title>Logo Animation</title>
    <desc>Created with Sketch.</desc>
    <defs></defs>
    <g id="Page-1" stroke="none" stroke-width="1" fill="none" fill-rule="evenodd">
        <g id="Logo-Animation">
            <g id="laser" transform="translate(44.000000, 38.000000)">
                <g id="frame-1">
                    <path d="M32,1.42108547e-14 L16,1.42108547e-14 L16,24 L24,24 L24,86 L72,86 L72,7.10542736e-15 L32,7.10542736e-15 Z M-7.10542736e-15,16 L8,16 L8,24 L-7.10542736e-15,24 L-7.10542736e-15,16 Z M0,7.10542736e-15 L16,7.10542736e-15 L16,16 L0,16 L0,7.10542736e-15 Z M0,24 L24,24 L24,86 L0,86 L0,24 Z" id="Rectangle-83" fill="#121212"></path>
                    <g id="Group-2" transform="translate(8.000000, 16.000000)" fill="#FFFFFF">
                        <rect id="Rectangle-84" x="0" y="8" width="8" height="8"></rect>
                        <rect id="Rectangle-84-Copy" fill-opacity="0.5" x="0" y="0" width="8" height="8"></rect>
                    </g>
                </g>
                <g id="frame-2" transform="translate(160.000000, 0.000000)">
                    <path d="M20,86 L72,86 L72,7.10542736e-15 L16,7.10542736e-15 L16,40 L0,40 L0,86 L20,86 Z M0,16 L8,16 L8,40 L0,40 L0,16 Z M0,7.10542736e-15 L16,7.10542736e-15 L16,16 L0,16 L0,7.10542736e-15 Z" id="Rectangle-83" fill="#121212"></path>
                    <g id="Group-2" transform="translate(8.000000, 32.000000)" fill="#FFFFFF">
                        <rect id="Rectangle-84" x="0" y="8" width="8" height="8"></rect>
                        <rect id="Rectangle-84-Copy" fill-opacity="0.5" x="0" y="0" width="8" height="8"></rect>
                    </g>
                </g>
                <g id="frame-3" transform="translate(320.000000, 0.000000)">
                    <path d="M20,86 L72,86 L72,7.10542736e-15 L16,7.10542736e-15 L16,56 L0,56 L0,86 L20,86 Z M0,16 L8,16 L8,56 L0,56 L0,16 Z M0,7.10542736e-15 L16,7.10542736e-15 L16,16 L0,16 L0,7.10542736e-15 Z" id="Rectangle-83" fill="#121212"></path>
                    <g id="Group-2" transform="translate(8.000000, 48.000000)" fill="#FFFFFF">
                        <rect id="Rectangle-84" x="0" y="8" width="8" height="8"></rect>
                        <rect id="Rectangle-84-Copy" fill-opacity="0.5" x="0" y="0" width="8" height="8"></rect>
                    </g>
                </g>
                <g id="frame-4" transform="translate(480.000000, 0.000000)">
                    <path d="M20,86 L72,86 L72,7.10542736e-15 L16,7.10542736e-15 L16,70 L0,70 L0,86 L20,86 Z M0,16 L8,16 L8,70 L0,70 L0,16 Z M0,7.10542736e-15 L16,7.10542736e-15 L16,16 L0,16 L0,7.10542736e-15 Z" id="Rectangle-83" fill="#121212"></path>
                    <g id="Group-2" transform="translate(8.000000, 62.000000)" fill="#FFFFFF">
                        <rect id="Rectangle-84" x="0" y="8" width="8" height="8"></rect>
                        <rect id="Rectangle-84-Copy" fill-opacity="0.5" x="0" y="0" width="8" height="8"></rect>
                    </g>
                </g>
                <g id="frame-5" transform="translate(640.000000, 0.000000)">
                    <path d="M20,86 L72,86 L72,7.10542736e-15 L16,7.10542736e-15 L16,78 L0,78 L0,86 L20,86 Z M0,16 L8,16 L8,78 L0,78 L0,16 Z M0,7.10542736e-15 L16,7.10542736e-15 L16,16 L0,16 L0,7.10542736e-15 Z" id="Rectangle-83" fill="#121212"></path>
                    <g id="Group-2" transform="translate(16.000000, 74.000000) rotate(-90.000000) translate(-16.000000, -74.000000) translate(12.000000, 66.000000)" fill="#FFFFFF">
                        <rect id="Rectangle-84" x="0" y="8" width="8" height="8"></rect>
                        <rect id="Rectangle-84-Copy" fill-opacity="0.5" x="0" y="0" width="8" height="8"></rect>
                    </g>
                </g>
                <g id="frame-6" transform="translate(800.000000, 0.000000)">
                    <path d="M36,1.42108547e-14 L16,1.42108547e-14 L16,70 L32,70 L32,86 L72,86 L72,7.10542736e-15 L36,7.10542736e-15 Z M0,16 L8,16 L8,78 L0,78 L0,16 Z M0,7.10542736e-15 L16,7.10542736e-15 L16,16 L0,16 L0,7.10542736e-15 Z M0,78 L32,78 L32,86 L0,86 L0,78 Z" id="Rectangle-83" fill="#121212"></path>
                    <g id="Group-2" transform="translate(32.000000, 74.000000) rotate(-90.000000) translate(-32.000000, -74.000000) translate(28.000000, 66.000000)" fill="#FFFFFF">
                        <rect id="Rectangle-84" x="0" y="8" width="8" height="8"></rect>
                        <rect id="Rectangle-84-Copy" fill-opacity="0.5" x="0" y="0" width="8" height="8"></rect>
                    </g>
                </g>
                <g id="frame-7" transform="translate(960.000000, 0.000000)">
                    <path d="M0,16 L8,16 L8,78 L0,78 L0,16 Z M0,7.10542736e-15 L16,7.10542736e-15 L16,16 L0,16 L0,7.10542736e-15 Z M16,1.42108547e-14 L48,1.42108547e-14 L48,70 L16,70 L16,1.42108547e-14 Z M48,7.10542736e-15 L72,7.10542736e-15 L72,86 L48,86 L48,7.10542736e-15 Z M0,78 L48,78 L48,86 L0,86 L0,78 Z" id="Rectangle-83" fill="#121212"></path>
                    <g id="Group-2" transform="translate(48.000000, 74.000000) rotate(-90.000000) translate(-48.000000, -74.000000) translate(44.000000, 66.000000)" fill="#FFFFFF">
                        <rect id="Rectangle-84" x="0" y="8" width="8" height="8"></rect>
                        <rect id="Rectangle-84-Copy" fill-opacity="0.5" x="0" y="0" width="8" height="8"></rect>
                    </g>
                </g>
                <g id="frame-8" transform="translate(1120.000000, 0.000000)">
                    <path d="M0,16 L8,16 L8,78 L0,78 L0,16 Z M0,7.10542736e-15 L16,7.10542736e-15 L16,16 L0,16 L0,7.10542736e-15 Z M16,1.42108547e-14 L56,1.42108547e-14 L56,70 L16,70 L16,1.42108547e-14 Z M64,7.10542736e-15 L72,7.10542736e-15 L72,86 L64,86 L64,7.10542736e-15 Z M56,7.10542736e-15 L64,7.10542736e-15 L64,62 L56,62 L56,7.10542736e-15 Z M0,78 L64,78 L64,86 L0,86 L0,78 Z" id="Rectangle-83" fill="#121212"></path>
                    <g id="Group-2" transform="translate(60.000000, 70.000000) rotate(-180.000000) translate(-60.000000, -70.000000) translate(56.000000, 62.000000)" fill="#FFFFFF">
                        <rect id="Rectangle-84" x="0" y="8" width="8" height="8"></rect>
                        <rect id="Rectangle-84-Copy" fill-opacity="0.5" x="0" y="0" width="8" height="8"></rect>
                    </g>
                </g>
                <g id="frame-9" transform="translate(1280.000000, 0.000000)">
                    <path d="M0,16 L8,16 L8,78 L0,78 L0,16 Z M0,7.10542736e-15 L16,7.10542736e-15 L16,16 L0,16 L0,7.10542736e-15 Z M16,1.42108547e-14 L56,1.42108547e-14 L56,70 L16,70 L16,1.42108547e-14 Z M64,7.10542736e-15 L72,7.10542736e-15 L72,86 L64,86 L64,7.10542736e-15 Z M56,7.10542736e-15 L64,7.10542736e-15 L64,54 L56,54 L56,7.10542736e-15 Z M0,78 L64,78 L64,86 L0,86 L0,78 Z" id="Rectangle-83" fill="#121212"></path>
                    <g id="Group-2" transform="translate(60.000000, 62.000000) rotate(-180.000000) translate(-60.000000, -62.000000) translate(56.000000, 54.000000)" fill="#FFFFFF">
                        <rect id="Rectangle-84" x="0" y="8" width="8" height="8"></rect>
                        <rect id="Rectangle-84-Copy" fill-opacity="0.5" x="0" y="0" width="8" height="8"></rect>
                    </g>
                </g>
                <g id="frame-10" transform="translate(1440.000000, 0.000000)">
                    <path d="M0,16 L8,16 L8,78 L0,78 L0,16 Z M0,7.10542736e-15 L16,7.10542736e-15 L16,16 L0,16 L0,7.10542736e-15 Z M16,1.42108547e-14 L56,1.42108547e-14 L56,70 L16,70 L16,1.42108547e-14 Z M64,7.10542736e-15 L72,7.10542736e-15 L72,86 L64,86 L64,7.10542736e-15 Z M56,7.10542736e-15 L64,7.10542736e-15 L64,38 L56,38 L56,7.10542736e-15 Z M0,78 L64,78 L64,86 L0,86 L0,78 Z" id="Rectangle-83" fill="#121212"></path>
                    <g id="Group-2" transform="translate(60.000000, 46.000000) rotate(-180.000000) translate(-60.000000, -46.000000) translate(56.000000, 38.000000)" fill="#FFFFFF">
                        <rect id="Rectangle-84" x="0" y="8" width="8" height="8"></rect>
                        <rect id="Rectangle-84-Copy" fill-opacity="0.5" x="0" y="0" width="8" height="8"></rect>
                    </g>
                </g>
                <g id="frame-11" transform="translate(1600.000000, 0.000000)">
                    <path d="M0,16 L8,16 L8,78 L0,78 L0,16 Z M0,7.10542736e-15 L16,7.10542736e-15 L16,16 L0,16 L0,7.10542736e-15 Z M16,1.42108547e-14 L56,1.42108547e-14 L56,70 L16,70 L16,1.42108547e-14 Z M64,7.10542736e-15 L72,7.10542736e-15 L72,86 L64,86 L64,7.10542736e-15 Z M56,7.10542736e-15 L64,7.10542736e-15 L64,32 L56,32 L56,7.10542736e-15 Z M0,78 L64,78 L64,86 L0,86 L0,78 Z" id="Rectangle-83" fill="#121212"></path>
                    <g id="Group-2" transform="translate(60.000000, 32.000000) rotate(-180.000000) translate(-60.000000, -32.000000) translate(56.000000, 24.000000)" fill="#FFFFFF">
                        <rect id="Rectangle-84" x="0" y="8" width="8" height="8"></rect>
                        <rect id="Rectangle-84-Copy" fill-opacity="0.5" x="0" y="0" width="8" height="8"></rect>
                    </g>
                </g>
                <g id="frame-12" transform="translate(1760.000000, 0.000000)">
                    <path d="M0,16 L8,16 L8,78 L0,78 L0,16 Z M0,7.10542736e-15 L16,7.10542736e-15 L16,16 L0,16 L0,7.10542736e-15 Z M16,1.42108547e-14 L56,1.42108547e-14 L56,70 L16,70 L16,1.42108547e-14 Z M64,7.10542736e-15 L72,7.10542736e-15 L72,86 L64,86 L64,7.10542736e-15 Z M56,7.10542736e-15 L64,7.10542736e-15 L64,24 L56,24 L56,7.10542736e-15 Z M0,78 L64,78 L64,86 L0,86 L0,78 Z" id="Rectangle-83" fill="#121212"></path>
                    <g id="Group-2" transform="translate(56.000000, 28.000000) rotate(-270.000000) translate(-56.000000, -28.000000) translate(52.000000, 20.000000)" fill="#FFFFFF">
                        <rect id="Rectangle-84" x="0" y="8" width="8" height="8"></rect>
                        <rect id="Rectangle-84-Copy" fill-opacity="0.5" x="0" y="0" width="8" height="8"></rect>
                    </g>
                </g>
                <g id="frame-13" transform="translate(1920.000000, 0.000000)">
                    <path d="M0,16 L8,16 L8,78 L0,78 L0,16 Z M0,7.10542736e-15 L16,7.10542736e-15 L16,16 L0,16 L0,7.10542736e-15 Z M16,24 L40,24 L40,32 L16,32 L16,24 Z M16,32 L56,32 L56,70 L16,70 L16,32 Z M64,7.10542736e-15 L72,7.10542736e-15 L72,86 L64,86 L64,7.10542736e-15 Z M16,7.10542736e-15 L64,7.10542736e-15 L64,24 L16,24 L16,7.10542736e-15 Z M0,78 L64,78 L64,86 L0,86 L0,78 Z" id="Rectangle-83" fill="#121212"></path>
                    <g id="Group-2" transform="translate(44.000000, 24.000000) rotate(-180.000000) translate(-44.000000, -24.000000) translate(40.000000, 16.000000)" fill="#FFFFFF">
                        <rect id="Rectangle-84" x="0" y="8" width="8" height="8"></rect>
                        <rect id="Rectangle-84-Copy" fill-opacity="0.5" x="0" y="0" width="8" height="8"></rect>
                    </g>
                </g>
                <g id="frame-14" transform="translate(2080.000000, 0.000000)">
                    <path d="M0,16 L8,16 L8,78 L0,78 L0,16 Z M0,7.10542736e-15 L56,7.10542736e-15 L56,16 L0,16 L0,7.10542736e-15 Z M16,16 L40,16 L40,32 L16,32 L16,16 Z M16,32 L56,32 L56,70 L16,70 L16,32 Z M64,7.10542736e-15 L72,7.10542736e-15 L72,86 L64,86 L64,7.10542736e-15 Z M56,7.10542736e-15 L64,7.10542736e-15 L64,24 L56,24 L56,7.10542736e-15 Z M0,78 L64,78 L64,86 L0,86 L0,78 Z" id="Rectangle-83" fill="#121212"></path>
                    <g id="Group-2" transform="translate(48.000000, 20.000000) rotate(-90.000000) translate(-48.000000, -20.000000) translate(44.000000, 12.000000)" fill="#FFFFFF">
                        <rect id="Rectangle-84" x="0" y="8" width="8" height="8"></rect>
                        <rect id="Rectangle-84-Copy" fill-opacity="0.5" x="0" y="0" width="8" height="8"></rect>
                    </g>
                </g>
                <g id="frame-15" transform="translate(2240.000000, 0.000000)">
                    <path d="M0,16 L8,16 L8,78 L0,78 L0,16 Z M0,7.10542736e-15 L40,7.10542736e-15 L40,16 L0,16 L0,7.10542736e-15 Z M16,16 L40,16 L40,32 L16,32 L16,16 Z M16,32 L56,32 L56,70 L16,70 L16,32 Z M64,7.10542736e-15 L72,7.10542736e-15 L72,86 L64,86 L64,7.10542736e-15 Z M56,7.10542736e-15 L64,7.10542736e-15 L64,24 L56,24 L56,7.10542736e-15 Z M48,7.10542736e-15 L56,7.10542736e-15 L56,16 L48,16 L48,7.10542736e-15 Z M40,7.10542736e-15 L48,7.10542736e-15 L48,8 L40,8 L40,7.10542736e-15 Z M0,78 L64,78 L64,86 L0,86 L0,78 Z" id="Rectangle-83" fill="#121212"></path>
                    <g id="Group-2" transform="translate(40.000000, 12.000000) rotate(-270.000000) translate(-40.000000, -12.000000) translate(36.000000, 4.000000)" fill="#FFFFFF">
                        <rect id="Rectangle-84" x="0" y="8" width="8" height="8"></rect>
                        <rect id="Rectangle-84-Copy" fill-opacity="0.5" x="0" y="0" width="8" height="8"></rect>
                    </g>
                </g>
                <g id="frame-16" transform="translate(2400.000000, 0.000000)">
                    <path d="M0,16 L8,16 L8,78 L0,78 L0,16 Z M0,7.10542736e-15 L24,7.10542736e-15 L24,16 L0,16 L0,7.10542736e-15 Z M16,16 L40,16 L40,32 L16,32 L16,16 Z M16,32 L56,32 L56,70 L16,70 L16,32 Z M64,7.10542736e-15 L72,7.10542736e-15 L72,86 L64,86 L64,7.10542736e-15 Z M56,7.10542736e-15 L64,7.10542736e-15 L64,24 L56,24 L56,7.10542736e-15 Z M48,7.10542736e-15 L56,7.10542736e-15 L56,16 L48,16 L48,7.10542736e-15 Z M24,7.10542736e-15 L48,7.10542736e-15 L48,8 L24,8 L24,7.10542736e-15 Z M0,78 L64,78 L64,86 L0,86 L0,78 Z" id="Rectangle-83" fill="#121212"></path>
                    <g id="Group-2" transform="translate(24.000000, 12.000000) rotate(-270.000000) translate(-24.000000, -12.000000) translate(20.000000, 4.000000)" fill="#FFFFFF">
                        <rect id="Rectangle-84" x="0" y="8" width="8" height="8"></rect>
                        <rect id="Rectangle-84-Copy" fill-opacity="0.5" x="0" y="0" width="8" height="8"></rect>
                    </g>
                </g>
            </g>
        </g>
    </g>
</svg>